<svg xmlns="http://www.w3.org/2000/svg" xmlns:xlink="http://www.w3.org/1999/xlink" width="40" zoomAndPan="magnify" viewBox="0 0 30 30.000001" height="40" preserveAspectRatio="xMidYMid meet" version="1.0"><defs><clipPath id="1e57f8d191"><path d="M 0.484375 0 L 29.515625 0 L 29.515625 29 L 0.484375 29 Z M 0.484375 0 " clip-rule="nonzero"/></clipPath><clipPath id="382796d043"><path d="M 0.484375 0 L 29.515625 0 L 29.515625 29.03125 L 0.484375 29.03125 Z M 0.484375 0 " clip-rule="nonzero"/></clipPath><clipPath id="24cb9619ed"><path d="M 10.066406 6.386719 L 13.695312 6.386719 L 13.695312 10.015625 L 10.066406 10.015625 Z M 10.066406 6.386719 " clip-rule="nonzero"/></clipPath><clipPath id="e19017d67d"><path d="M 11.878906 6.386719 C 10.875 6.386719 10.066406 7.199219 10.066406 8.203125 C 10.066406 9.203125 10.875 10.015625 11.878906 10.015625 C 12.882812 10.015625 13.695312 9.203125 13.695312 8.203125 C 13.695312 7.199219 12.882812 6.386719 11.878906 6.386719 Z M 11.878906 6.386719 " clip-rule="nonzero"/></clipPath></defs><g clip-path="url(#1e57f8d191)"><path fill="#b81926" d="M 15 28.996094 C 7.003906 28.996094 0.523438 22.515625 0.523438 14.519531 C 0.523438 6.519531 7.003906 0.0390625 15 0.0390625 C 23 0.0390625 29.480469 6.519531 29.480469 14.519531 C 29.480469 22.515625 23 28.996094 15 28.996094 Z M 15 28.996094 " fill-opacity="1" fill-rule="nonzero"/></g><g clip-path="url(#382796d043)"><path stroke-linecap="butt" transform="matrix(0.0759212, 0, 0, 0.0759212, 0.48387, 0.00000193548)" fill="none" stroke-linejoin="miter" d="M 191.199993 381.923608 C 85.879008 381.923608 0.521159 296.56576 0.521159 191.244774 C 0.521159 85.872337 85.879008 0.514488 191.199993 0.514488 C 296.572431 0.514488 381.930279 85.872337 381.930279 191.244774 C 381.930279 296.56576 296.572431 381.923608 191.199993 381.923608 Z M 191.199993 381.923608 " stroke="#3fb24f" stroke-width="1" stroke-opacity="1" stroke-miterlimit="10"/></g><path fill="#ffffff" d="M 12.039062 23.550781 L 5.796875 15.445312 L 8.203125 13.589844 L 12.125 18.683594 L 21.832031 6.949219 L 24.171875 8.886719 Z M 12.039062 23.550781 " fill-opacity="1" fill-rule="nonzero"/><g clip-path="url(#24cb9619ed)"><g clip-path="url(#e19017d67d)"><path fill="#b81926" d="M 10.066406 6.386719 L 13.695312 6.386719 L 13.695312 10.015625 L 10.066406 10.015625 Z M 10.066406 6.386719 " fill-opacity="1" fill-rule="nonzero"/></g></g></svg>