<svg xmlns="http://www.w3.org/2000/svg" xmlns:xlink="http://www.w3.org/1999/xlink" width="40" zoomAndPan="magnify" viewBox="0 0 30 30.000001" height="40" preserveAspectRatio="xMidYMid meet" version="1.0"><defs><clipPath id="e40ecb5c30"><path d="M 0.484375 0 L 29.515625 0 L 29.515625 29.03125 L 0.484375 29.03125 Z M 0.484375 0 " clip-rule="nonzero"/></clipPath></defs><g clip-path="url(#e40ecb5c30)"><path fill="#000000" d="M 25.199219 29.03125 L 4.800781 29.03125 C 2.417969 29.03125 0.484375 27.097656 0.484375 24.714844 L 0.484375 4.316406 C 0.484375 1.9375 2.417969 0 4.800781 0 L 25.199219 0 C 27.582031 0 29.515625 1.9375 29.515625 4.316406 L 29.515625 24.714844 C 29.515625 27.097656 27.582031 29.03125 25.199219 29.03125 Z M 4.800781 1.570312 C 3.285156 1.570312 2.054688 2.800781 2.054688 4.316406 L 2.054688 24.714844 C 2.054688 26.230469 3.285156 27.464844 4.800781 27.464844 L 25.199219 27.464844 C 26.714844 27.464844 27.945312 26.230469 27.945312 24.714844 L 27.945312 4.316406 C 27.945312 2.800781 26.714844 1.570312 25.199219 1.570312 Z M 4.800781 1.570312 " fill-opacity="1" fill-rule="nonzero"/></g><path fill="#000000" d="M 15 22.753906 C 10.457031 22.753906 6.761719 19.058594 6.761719 14.515625 C 6.761719 9.972656 10.457031 6.277344 15 6.277344 C 19.542969 6.277344 23.238281 9.972656 23.238281 14.515625 C 23.238281 19.058594 19.542969 22.753906 15 22.753906 Z M 15 7.847656 C 11.324219 7.847656 8.332031 10.839844 8.332031 14.515625 C 8.332031 18.195312 11.324219 21.1875 15 21.1875 C 18.675781 21.1875 21.667969 18.195312 21.667969 14.515625 C 21.667969 10.839844 18.675781 7.847656 15 7.847656 Z M 15 7.847656 " fill-opacity="1" fill-rule="nonzero"/><path fill="#000000" d="M 23.632812 8.632812 C 22.117188 8.632812 20.886719 7.398438 20.886719 5.886719 C 20.886719 4.371094 22.117188 3.136719 23.632812 3.136719 C 25.144531 3.136719 26.378906 4.371094 26.378906 5.886719 C 26.378906 7.398438 25.144531 8.632812 23.632812 8.632812 Z M 23.632812 4.707031 C 22.980469 4.707031 22.453125 5.234375 22.453125 5.886719 C 22.453125 6.535156 22.980469 7.0625 23.632812 7.0625 C 24.28125 7.0625 24.808594 6.535156 24.808594 5.886719 C 24.808594 5.234375 24.28125 4.707031 23.632812 4.707031 Z M 23.632812 4.707031 " fill-opacity="1" fill-rule="nonzero"/></svg>