<svg xmlns="http://www.w3.org/2000/svg" xmlns:xlink="http://www.w3.org/1999/xlink" width="40" zoomAndPan="magnify" viewBox="0 0 30 30.000001" height="40" preserveAspectRatio="xMidYMid meet" version="1.0"><defs><clipPath id="90c82c2a6f"><path d="M 0.484375 0 L 29.515625 0 L 29.515625 29.03125 L 0.484375 29.03125 Z M 0.484375 0 " clip-rule="nonzero"/></clipPath></defs><path fill="#b81926" d="M 22.199219 21.65625 C 22.214844 21.601562 22.226562 21.542969 22.234375 21.480469 L 22.511719 18.878906 C 22.554688 18.488281 22.332031 18.113281 21.964844 17.964844 L 19.097656 16.796875 C 18.6875 16.632812 18.222656 16.789062 18 17.171875 L 16.945312 18.964844 C 14.175781 17.582031 11.933594 15.335938 10.546875 12.566406 L 12.34375 11.515625 C 12.722656 11.292969 12.882812 10.824219 12.714844 10.417969 L 11.546875 7.546875 C 11.398438 7.183594 11.027344 6.960938 10.632812 7 L 8.03125 7.277344 C 7.972656 7.285156 7.910156 7.296875 7.855469 7.316406 C 7.839844 7.320312 7.820312 7.328125 7.804688 7.335938 C 7.582031 7.441406 7.457031 7.679688 7.484375 7.921875 C 7.550781 8.507812 7.652344 9.085938 7.78125 9.65625 C 7.78125 9.660156 7.78125 9.660156 7.78125 9.660156 C 8.449219 12.589844 9.933594 15.289062 12.078125 17.433594 C 14.222656 19.582031 16.925781 21.0625 19.855469 21.730469 C 20.425781 21.863281 21.003906 21.960938 21.589844 22.027344 C 21.835938 22.054688 22.074219 21.929688 22.175781 21.707031 C 22.183594 21.691406 22.191406 21.671875 22.199219 21.65625 " fill-opacity="1" fill-rule="nonzero"/><g clip-path="url(#90c82c2a6f)"><path fill="#b81926" d="M 15 1.242188 C 7.679688 1.242188 1.722656 7.195312 1.722656 14.515625 C 1.722656 21.832031 7.679688 27.789062 15 27.789062 C 22.316406 27.789062 28.273438 21.832031 28.273438 14.515625 C 28.273438 7.195312 22.316406 1.242188 15 1.242188 Z M 15 29.03125 C 13.039062 29.03125 11.136719 28.644531 9.347656 27.886719 C 7.621094 27.15625 6.066406 26.109375 4.734375 24.777344 C 3.402344 23.445312 2.355469 21.894531 1.625 20.164062 C 0.867188 18.375 0.484375 16.472656 0.484375 14.515625 C 0.484375 12.554688 0.867188 10.65625 1.625 8.863281 C 2.355469 7.136719 3.402344 5.582031 4.734375 4.25 C 6.066406 2.917969 7.621094 1.871094 9.347656 1.140625 C 11.136719 0.382812 13.039062 0 15 0 C 16.957031 0 18.859375 0.382812 20.648438 1.140625 C 22.375 1.871094 23.929688 2.917969 25.261719 4.25 C 26.59375 5.582031 27.640625 7.136719 28.371094 8.863281 C 29.128906 10.65625 29.511719 12.554688 29.511719 14.515625 C 29.511719 16.472656 29.128906 18.375 28.371094 20.164062 C 27.640625 21.894531 26.59375 23.445312 25.261719 24.777344 C 23.929688 26.109375 22.375 27.15625 20.648438 27.886719 C 18.859375 28.644531 16.957031 29.03125 15 29.03125 " fill-opacity="1" fill-rule="nonzero"/></g></svg>