<svg width="190" height="40" viewBox="0 0 190 40" fill="none" xmlns="http://www.w3.org/2000/svg">
<g clip-path="url(#clip0_131_377)">
<path d="M0.356445 26.5638L13.816 20.5732L21.5632 25.0662L23.1283 39.806L13.5813 39.7272L14.9899 29.4802L13.3465 28.5344L5.28643 34.8402L0.356445 26.5638Z" fill="#F5F5F5"/>
<path d="M22.4258 24.4344L34.3203 33.1837L39.0155 24.7497L29.4686 20.8873V18.9956L39.0155 15.0544L34.3203 6.69919L22.4258 15.4486V24.4344Z" fill="#F5F5F5"/>
<path d="M21.5632 14.7399L23.1282 0L13.5813 0.157644L14.9899 10.4046L13.3466 11.3505L5.20818 5.04467L0.356445 13.2423L13.8161 19.2328L21.5632 14.7399Z" fill="#F5F5F5"/>
<path d="M70.8653 18.1351V31.9443H76.003V14.3457H68.5205V18.1351H70.8653Z" fill="#F5F5F5"/>
<path d="M70.7037 11.8725C71.1747 12.3649 71.892 12.611 72.8555 12.611C73.8189 12.611 74.5253 12.3649 74.9747 11.8725C75.4458 11.3585 75.6811 10.7163 75.6811 9.94574C75.6811 9.15349 75.4458 8.51119 74.9747 8.01885C74.5253 7.50507 73.8189 7.24805 72.8555 7.24805C71.892 7.24805 71.1747 7.50507 70.7037 8.01885C70.2542 8.51119 70.0293 9.15349 70.0293 9.94574C70.0293 10.7163 70.2542 11.3585 70.7037 11.8725Z" fill="#F5F5F5"/>
<path d="M52.9768 31.5594C54.4326 32.2231 56.2203 32.5551 58.3395 32.5551C60.3305 32.5551 62.0433 32.2446 63.4778 31.6237C64.9124 31.003 66.0149 30.1356 66.7855 29.0225C67.5777 27.8876 67.9739 26.571 67.9739 25.0723C67.9739 23.6166 67.5994 22.3855 66.8502 21.3792C66.122 20.3516 65.1053 19.5487 63.799 18.9709C62.4932 18.3712 60.9837 17.9966 59.271 17.8469L57.4728 17.6863C56.4024 17.6004 55.6313 17.3116 55.1601 16.819C54.6896 16.3267 54.4538 15.7486 54.4538 15.0851C54.4538 14.571 54.5825 14.1001 54.839 13.672C55.0961 13.2224 55.4813 12.8691 55.9954 12.6121C56.5306 12.3554 57.1837 12.2269 57.9543 12.2269C58.7677 12.2269 59.4421 12.3766 59.9773 12.6765C60.0953 12.7398 60.207 12.8075 60.3125 12.8795L60.3378 12.8973C60.3771 12.9245 60.4159 12.9527 60.4531 12.9811C60.7784 13.2296 61.0375 13.5241 61.2298 13.8646C61.5081 14.3357 61.6477 14.8601 61.6477 15.4383H66.7855C66.7855 13.8967 66.4323 12.5586 65.7258 11.424C65.0194 10.2679 64.0028 9.37946 62.6753 8.75835C61.369 8.11607 59.7953 7.79492 57.9543 7.79492C56.1986 7.79492 54.6787 8.09487 53.3942 8.69427C52.1096 9.27239 51.1032 10.1073 50.3756 11.199C49.6687 12.2909 49.3155 13.5864 49.3155 15.0851C49.3155 17.1617 50.0116 18.8315 51.4031 20.0949C52.7948 21.358 54.6575 22.0858 56.9909 22.2785L58.7574 22.439C60.1915 22.5675 61.2298 22.8567 61.8721 23.306C62.5144 23.7343 62.8355 24.323 62.8355 25.0723C62.8355 25.4167 62.7792 25.7397 62.6664 26.0415C62.5827 26.2654 62.4679 26.4777 62.3221 26.6781C61.9792 27.1277 61.476 27.4809 60.8126 27.7379C60.1491 27.9947 59.3247 28.1232 58.3395 28.1232C57.2479 28.1232 56.3595 27.9735 55.6742 27.6736C54.989 27.3524 54.4755 26.9351 54.1327 26.4213C53.8115 25.9073 53.6512 25.3508 53.6512 24.7512H48.5449C48.5449 26.2713 48.9193 27.6201 49.6687 28.7976C50.418 29.9539 51.5211 30.8744 52.9768 31.5594Z" fill="#F5F5F5"/>
<path d="M87.4662 32.1689C85.6892 32.1689 84.2549 31.9547 83.1633 31.5266C82.071 31.0769 81.2684 30.3384 80.7544 29.3109C80.2621 28.2616 80.0159 26.8488 80.0159 25.0716V18.1029H77.3506V14.3456H80.0159V9.59277H84.801V14.3456H89.9394V18.1029H84.801V25.2645C84.801 26.0994 85.0151 26.7417 85.4433 27.1911C85.8926 27.6193 86.5241 27.8334 87.3377 27.8334H89.9394V32.1689H87.4662Z" fill="#F5F5F5"/>
<path fill-rule="evenodd" clip-rule="evenodd" d="M96.1263 31.7825C97.282 32.2963 98.6097 32.5534 100.108 32.5534C101.585 32.5534 102.891 32.2963 104.026 31.7825C105.161 31.2688 106.103 30.5515 106.852 29.631C107.602 28.7102 108.105 27.6612 108.361 26.4837H103.641C103.427 27.0189 103.02 27.4686 102.421 27.8323C101.821 28.1964 101.05 28.3785 100.108 28.3785C99.5246 28.3785 99.0029 28.3094 98.5441 28.1713C98.1943 28.0664 97.8811 27.9214 97.6029 27.7362C96.9612 27.308 96.4897 26.7083 96.1901 25.9378C96.1075 25.7183 96.036 25.4887 95.9756 25.2495C95.9152 25.0072 95.8658 24.7551 95.8284 24.4927H108.683V22.7585C108.683 21.1528 108.34 19.6755 107.655 18.3268C106.97 16.9564 105.974 15.8539 104.668 15.0189C103.384 14.1625 101.799 13.7344 99.9152 13.7344C98.4812 13.7344 97.196 13.9913 96.0616 14.5051C94.9484 14.9974 94.0173 15.6718 93.2684 16.5282C92.5186 17.3846 91.9407 18.3589 91.5339 19.4508C91.1484 20.521 90.9561 21.645 90.9561 22.8225V23.4648C90.9561 24.5997 91.1484 25.7128 91.5339 26.8048C91.9407 27.8753 92.5186 28.8494 93.2684 29.7271C94.0386 30.5836 94.9909 31.2688 96.1263 31.7825ZM95.9169 21.3172C95.9314 21.2492 95.9467 21.1822 95.9629 21.1162C96.0071 20.9347 96.0582 20.7608 96.1169 20.5945C96.1501 20.4998 96.185 20.4075 96.2224 20.3178C96.5433 19.5255 97.0148 18.9262 97.6352 18.5194C97.8675 18.3674 98.1186 18.2438 98.3892 18.1487C98.8437 17.9891 99.3526 17.9092 99.9152 17.9092C100.793 17.9092 101.521 18.1127 102.099 18.5194C102.699 18.9047 103.148 19.472 103.448 20.2214C103.473 20.2819 103.496 20.3434 103.518 20.4057C103.553 20.505 103.586 20.6069 103.616 20.7113C103.662 20.8667 103.702 21.0276 103.736 21.1939C103.762 21.3164 103.784 21.4418 103.803 21.5703H95.8675C95.8829 21.4845 95.899 21.4002 95.9169 21.3172Z" fill="#F5F5F5"/>
<path d="M110.803 31.9452V14.3467H114.881V18.7791C114.936 18.5156 115 18.2627 115.071 18.0201C115.13 17.8158 115.196 17.6188 115.267 17.4295C115.717 16.2306 116.391 15.3315 117.29 14.7319C118.189 14.1111 119.291 13.8008 120.598 13.8008H120.822C122.15 13.8008 123.252 14.1111 124.13 14.7319C125.029 15.3315 125.704 16.2306 126.153 17.4295L126.188 17.5201L126.219 17.6028C126.239 17.5444 126.261 17.4867 126.282 17.4295C126.753 16.2306 127.438 15.3315 128.337 14.7319C129.236 14.1111 130.339 13.8008 131.645 13.8008H131.87C133.197 13.8008 134.31 14.1111 135.21 14.7319C136.13 15.3315 136.827 16.2306 137.297 17.4295C137.768 18.6285 138.004 20.1272 138.004 21.9255V31.9452H132.866V21.6365C132.866 20.673 132.609 19.8917 132.095 19.2923C131.602 18.6927 130.895 18.393 129.975 18.393C129.055 18.393 128.326 18.7035 127.791 19.3244C127.256 19.9238 126.988 20.7266 126.988 21.733V31.9452H121.818V21.6365C121.818 20.673 121.561 19.8917 121.047 19.2923C120.555 18.6927 119.859 18.393 118.96 18.393C118.018 18.393 117.279 18.7035 116.744 19.3244C116.209 19.9238 115.941 20.7266 115.941 21.733V31.9452H110.803Z" fill="#F5F5F5"/>
<path fill-rule="evenodd" clip-rule="evenodd" d="M151.729 28.5544V31.9453H155.806V21.1549C155.806 19.5277 155.485 18.2004 154.843 17.1726C154.201 16.1236 153.259 15.3422 152.017 14.8284C150.797 14.3146 149.287 14.0576 147.49 14.0576C147.1 14.0576 146.692 14.0618 146.268 14.0703C146.017 14.0755 145.76 14.082 145.498 14.0897C144.792 14.1111 144.107 14.1432 143.443 14.1861L142.936 14.2203C142.675 14.2384 142.431 14.2562 142.2 14.2743C142.027 14.2877 141.864 14.3012 141.709 14.3146V18.65C142.372 18.6071 143.111 18.5643 143.924 18.5215C144.153 18.5097 144.378 18.4986 144.602 18.4883C144.924 18.4732 145.244 18.4603 145.559 18.4489C145.809 18.4398 146.056 18.4318 146.301 18.4251C147.072 18.4037 147.693 18.393 148.164 18.393C149.106 18.393 149.791 18.6178 150.219 19.0674C150.647 19.5171 150.861 20.1914 150.861 21.0907V21.1549H147.682C146.118 21.1549 144.738 21.3584 143.539 21.7651C142.34 22.1504 141.409 22.7606 140.745 23.5955C140.081 24.4092 139.75 25.4582 139.75 26.7428C139.75 27.9203 140.017 28.9373 140.553 29.7937C141.088 30.6286 141.826 31.2709 142.769 31.7203C143.732 32.17 144.845 32.3949 146.108 32.3949C147.329 32.3949 148.356 32.17 149.191 31.7203C150.048 31.2709 150.711 30.6286 151.182 29.7937C151.265 29.653 151.342 29.5069 151.415 29.3554C151.516 29.1408 151.607 28.9153 151.688 28.679L151.729 28.5544ZM150.861 25.4262V24.0131H147.65C146.75 24.0131 146.055 24.2378 145.563 24.6874C145.091 25.1157 144.856 25.7044 144.856 26.4537C144.856 26.8064 144.914 27.1271 145.032 27.4159C145.15 27.7054 145.327 27.9627 145.563 28.188C146.055 28.6162 146.75 28.8302 147.65 28.8302C147.821 28.8302 147.987 28.8217 148.146 28.8049C148.277 28.7912 148.403 28.7718 148.525 28.7467C148.762 28.6989 148.983 28.6304 149.191 28.5412C149.662 28.3271 150.048 27.9739 150.347 27.4813C150.647 26.9889 150.818 26.3037 150.861 25.4262Z" fill="#F5F5F5"/>
<path d="M158.882 31.9444V14.3459H162.961V20.1546C163.157 18.4964 163.649 17.1593 164.438 16.1442C165.509 14.7955 167.05 14.1211 169.062 14.1211H169.737V18.5528H168.452C167.039 18.5528 165.947 18.938 165.177 19.7088C164.406 20.4582 164.021 21.5501 164.021 22.9844V31.9444H158.882Z" fill="#F5F5F5"/>
<path d="M176.252 23.724H177.954L183.51 31.9453H189.29L182.246 21.8486L188.038 14.3467H182.643L176.252 22.7145V8.50195H171.114V31.9453H176.252V23.724Z" fill="#F5F5F5"/>
</g>
<defs>
<clipPath id="clip0_131_377">
<rect width="188.936" height="40" fill="white" transform="translate(0.356445)"/>
</clipPath>
</defs>
</svg>
