<?xml version="1.0" encoding="utf-8"?>
<!-- Generator: Adobe Illustrator 28.0.0, SVG Export Plug-In . SVG Version: 6.00 Build 0)  -->
<svg version="1.1" id="Layer_1" xmlns="http://www.w3.org/2000/svg" xmlns:xlink="http://www.w3.org/1999/xlink" x="0px" y="0px"
	 viewBox="0 0 691.73 321.01" style="enable-background:new 0 0 691.73 321.01;" xml:space="preserve">
<style type="text/css">
	.st0{fill:#FFFFFF;}
	.st1{fill:#0A3161;}
	.st2{clip-path:url(#SVGID_00000062188956480264335190000015367006723508788888_);fill:#B81926;}
	.st3{clip-path:url(#SVGID_00000062188956480264335190000015367006723508788888_);fill:#FFFFFF;}
</style>
<polygon class="st0" points="590.96,77.22 581.32,86.24 560.06,4.2 501.74,56.73 495.38,44.2 422.92,103.38 413.82,64.25 
	360.49,112.6 348.28,109.17 343.02,114.91 297.89,164.24 351.33,120.54 359.11,125.63 408.79,79.73 408.87,101.06 395.05,163.81 
	425.87,111.69 490.21,58.6 484.05,102.04 470.64,164.24 503.89,69.86 555.16,19.4 537.94,74.69 560.72,56.46 559.38,134.83 
	542.47,115.46 510.32,162.9 541.15,130.46 564.21,165.58 590.75,102.04 635.79,161.82 "/>
<polygon class="st1" points="63.12,114.37 44.89,164.24 297.89,164.24 343.02,114.91 "/>
<polygon class="st0" points="84.57,122.44 88.74,135.28 102.25,135.28 91.32,143.22 95.49,156.07 84.57,148.13 73.64,156.07 
	77.81,143.22 66.88,135.28 80.39,135.28 "/>
<polygon class="st0" points="133.48,122.44 137.65,135.28 151.16,135.28 140.23,143.22 144.4,156.07 133.48,148.13 122.55,156.07 
	126.72,143.22 115.8,135.28 129.3,135.28 "/>
<polygon class="st0" points="182.39,122.44 186.56,135.28 200.07,135.28 189.14,143.22 193.32,156.07 182.39,148.13 171.46,156.07 
	175.64,143.22 164.71,135.28 178.21,135.28 "/>
<polygon class="st0" points="231.3,122.44 235.47,135.28 248.98,135.28 238.05,143.22 242.23,156.07 231.3,148.13 220.37,156.07 
	224.55,143.22 213.62,135.28 227.13,135.28 "/>
<polygon class="st0" points="280.21,122.44 284.39,135.28 297.89,135.28 286.96,143.22 291.14,156.07 280.21,148.13 269.28,156.07 
	273.46,143.22 262.53,135.28 276.04,135.28 "/>
<g>
	<defs>
		<rect id="SVGID_1_" width="691.73" height="321.01"/>
	</defs>
	<clipPath id="SVGID_00000047022959739554828650000012991874542617659036_">
		<use xlink:href="#SVGID_1_"  style="overflow:visible;"/>
	</clipPath>
	<path style="clip-path:url(#SVGID_00000047022959739554828650000012991874542617659036_);fill:#B81926;" d="M117.81,184.14
		l-80.06-0.2l-15.52,42.52L6.72,268.98h82.68c5.3-0.45,13.94-3.6,18.83-12.58l6.37-18.03c0.67-4.69-1.54-11.06-8.4-11.84
		c0,0,0.08-0.03,0.21-0.07c1.51-0.5,11.65-4.12,16.24-13.29l5-16.58C128.18,193.01,126.57,184.86,117.81,184.14 M90.73,239.13
		l-2.86,9.38c-0.54,2.15-3.22,3.3-6.52,3.22l-45.43,0l5.99-16.62l46.15,0C90.2,235.11,91.36,237.16,90.73,239.13 M53.34,203.03
		l45.7,0c2.15,0,3.31,2.06,2.68,4.02l-2.23,7.33c-0.54,2.14-3.22,3.3-6.52,3.22l-44.98,0L53.34,203.03z"/>
	<path style="clip-path:url(#SVGID_00000047022959739554828650000012991874542617659036_);fill:#B81926;" d="M176.26,200.97
		c13.67,0,22.52,11.4,23.06,18.63l19.04-6.03c-2.28-12.87-13.67-29.62-38.61-29.62c-26.09,0-52.27,19.34-54.86,42.52
		c-0.14,1.24-0.26,2.48-0.26,3.73c0,23.19,14.63,37.94,40.1,38.79c15.42,0.51,41.69-11.44,50-32.22l-17.7-4.15
		c0,0-8.3,18.21-28.14,18.07c-19.99-0.13-24.95-14.32-24.81-22.1c0.01-0.63,0.1-1.35,0.24-2.12
		C145.84,217.71,155.39,200.97,176.26,200.97"/>
	<path style="clip-path:url(#SVGID_00000047022959739554828650000012991874542617659036_);fill:#B81926;" d="M272.24,200.97
		c13.67,0,22.52,11.4,23.06,18.63l19.04-6.03c-2.28-12.87-13.67-29.62-38.61-29.62c-26.09,0-52.27,19.34-54.86,42.52
		c-0.14,1.24-0.26,2.48-0.26,3.73c0,23.19,14.63,37.94,40.1,38.79c15.42,0.51,41.69-11.44,50-32.22l-17.69-4.15
		c0,0-8.3,18.21-28.14,18.07c-20-0.13-24.95-14.32-24.81-22.1c0.01-0.63,0.11-1.35,0.24-2.12
		C241.82,217.71,251.38,200.97,272.24,200.97"/>
	<polygon style="clip-path:url(#SVGID_00000047022959739554828650000012991874542617659036_);fill:#B81926;" points="439.14,226.46 
		423.59,268.99 447.05,268.99 462.4,226.46 477.74,183.94 454.69,183.94 	"/>
	<path style="clip-path:url(#SVGID_00000047022959739554828650000012991874542617659036_);fill:#B81926;" d="M574.13,183.94
		c0,0-25.34,26.54-40.62,42.52c-6.24,6.53-10.82,11.3-11.28,11.77c-1.61,1.61-2.79,2.29-3.59,0.01c-0.23-0.65-1.57-5.37-3.36-11.77
		c-4.48-16-11.79-42.52-11.79-42.52h-25.74c0,0,6.28,22.19,12.02,42.52c4.64,16.42,8.93,31.64,9.3,32.96
		c0.8,2.95,7.64,9.64,13.4,9.58c5.76-0.06,8.04-2.21,10.46-4.49c1.14-1.08,18.68-19.24,36.8-38.05
		c20.11-20.86,40.95-42.52,40.95-42.52H574.13z"/>
	<path style="clip-path:url(#SVGID_00000047022959739554828650000012991874542617659036_);fill:#B81926;" d="M613.94,205.53
		c0.4-1.07,1.88-4.69,5.63-4.69h59.52l6.57-16.89h-74.13c-3.35,0-14.48,5.9-16.76,11.8c-1.17,3.02-6.06,17.22-10.68,30.72
		c-4.4,12.86-8.56,25.08-9.02,26.39c-0.94,2.68-1.34,15.55,10.19,15.42c11.53-0.13,69.57,0,69.57,0l7.24-19.44
		c0,0-55.36,0.13-57.51,0.13c-2.14,0-4.42-1.47-3.89-3.08c0.54-1.61,2.01-7.37,2.54-8.98c0.54-1.61,2.08-1.94,3.82-1.94
		c1.74,0,59.39,0.27,59.39,0.27l3.36-8.76l3.41-8.87c0,0-58.18,0.27-60.59,0.27s-2.41-1.21-2.01-2.55
		C611,213.97,613.54,206.6,613.94,205.53"/>
	<path style="clip-path:url(#SVGID_00000047022959739554828650000012991874542617659036_);fill:#B81926;" d="M375.46,247.89
		c-4.29,0.27-5.23-4.69-3.48-9.25c0.48-1.26,2.18-5.99,4.38-12.18c5.78-16.23,15.06-42.52,15.06-42.52h-22.92l-15.7,42.52
		l-8.16,22.1c-2.95,6.84,0.94,18.1,13.14,20.44h60.99l7.51-21.24C426.27,247.75,378.41,247.7,375.46,247.89"/>
	<path style="clip-path:url(#SVGID_00000047022959739554828650000012991874542617659036_);fill:#FFFFFF;" d="M29.01,301.57
		c0.76,1,1.14,2.24,1.14,3.72c0,2.04-0.78,3.62-2.35,4.73c-1.57,1.11-3.86,1.67-6.86,1.67H9.23v-23.56h11.04
		c2.78,0,4.92,0.54,6.43,1.63c1.5,1.09,2.26,2.59,2.26,4.49c0,1.17-0.27,2.2-0.81,3.1c-0.54,0.9-1.28,1.59-2.22,2.09
		C27.22,299.86,28.25,300.58,29.01,301.57 M13.6,291.56v6.49h6.19c1.52,0,2.7-0.27,3.52-0.82c0.82-0.55,1.23-1.35,1.23-2.41
		c0-1.08-0.41-1.89-1.23-2.44c-0.82-0.55-1.99-0.82-3.52-0.82H13.6z M25.75,304.85c0-2.27-1.69-3.4-5.08-3.4H13.6v6.8h7.07
		C24.05,308.25,25.75,307.12,25.75,304.85"/>
	<path style="clip-path:url(#SVGID_00000047022959739554828650000012991874542617659036_);fill:#FFFFFF;" d="M39.34,310.46
		c-1.93-1.04-3.44-2.49-4.54-4.34c-1.1-1.85-1.65-3.92-1.65-6.21c0-2.29,0.55-4.36,1.65-6.21c1.1-1.85,2.61-3.3,4.54-4.34
		c1.93-1.04,4.09-1.57,6.49-1.57c2.4,0,4.57,0.52,6.5,1.57c1.93,1.04,3.44,2.48,4.54,4.32c1.1,1.84,1.65,3.91,1.65,6.22
		c0,2.31-0.55,4.39-1.65,6.23c-1.1,1.84-2.61,3.28-4.54,4.32c-1.93,1.04-4.09,1.57-6.5,1.57C43.44,312.02,41.27,311.5,39.34,310.46
		 M50.08,307.13c1.26-0.71,2.24-1.69,2.96-2.96c0.72-1.27,1.08-2.69,1.08-4.26c0-1.57-0.36-2.99-1.08-4.26
		c-0.72-1.27-1.7-2.25-2.96-2.96s-2.67-1.06-4.24-1.06s-2.98,0.35-4.24,1.06c-1.26,0.71-2.24,1.7-2.96,2.96
		c-0.72,1.27-1.08,2.69-1.08,4.26c0,1.57,0.36,2.99,1.08,4.26c0.72,1.27,1.7,2.25,2.96,2.96c1.26,0.71,2.67,1.06,4.24,1.06
		S48.82,307.83,50.08,307.13"/>
	<path style="clip-path:url(#SVGID_00000047022959739554828650000012991874542617659036_);fill:#FFFFFF;" d="M65.69,309.28
		c-1.82-1.83-2.73-4.45-2.73-7.86v-13.29h4.37v13.12c0,4.62,2,6.93,5.99,6.93c3.97,0,5.96-2.31,5.96-6.93v-13.12h4.31v13.29
		c0,3.41-0.9,6.03-2.71,7.86c-1.81,1.83-4.34,2.74-7.59,2.74C70.04,312.02,67.51,311.11,65.69,309.28"/>
	<polygon style="clip-path:url(#SVGID_00000047022959739554828650000012991874542617659036_);fill:#FFFFFF;" points="89.71,288.13 
		94.09,288.13 94.09,307.98 106.4,307.98 106.4,311.69 89.71,311.69 	"/>
	<path style="clip-path:url(#SVGID_00000047022959739554828650000012991874542617659036_);fill:#FFFFFF;" d="M109.87,288.13h10.3
		c2.51,0,4.74,0.49,6.7,1.46c1.95,0.98,3.47,2.36,4.54,4.14s1.61,3.84,1.61,6.18c0,2.33-0.54,4.39-1.61,6.17
		c-1.08,1.78-2.59,3.16-4.54,4.14c-1.95,0.98-4.18,1.46-6.7,1.46h-10.3V288.13z M119.97,307.98c1.73,0,3.25-0.33,4.56-0.99
		c1.31-0.66,2.32-1.6,3.03-2.83c0.71-1.22,1.06-2.64,1.06-4.26c0-1.62-0.35-3.03-1.06-4.26c-0.71-1.22-1.72-2.16-3.03-2.83
		c-1.31-0.66-2.83-0.99-4.56-0.99h-5.72v16.15H119.97z"/>
	<polygon style="clip-path:url(#SVGID_00000047022959739554828650000012991874542617659036_);fill:#FFFFFF;" points="155.33,308.02 
		155.33,311.68 137.67,311.68 137.67,288.13 154.86,288.13 154.86,291.8 142.04,291.8 142.04,297.92 153.41,297.92 153.41,301.52 
		142.04,301.52 142.04,308.02 	"/>
	<path style="clip-path:url(#SVGID_00000047022959739554828650000012991874542617659036_);fill:#FFFFFF;" d="M175.62,311.69
		l-4.81-6.9c-0.2,0.02-0.51,0.03-0.91,0.03h-5.32v6.86h-4.37v-23.55h9.69c2.04,0,3.82,0.34,5.33,1.01c1.51,0.67,2.68,1.64,3.48,2.89
		c0.81,1.26,1.21,2.75,1.21,4.48c0,1.77-0.43,3.3-1.3,4.58c-0.86,1.28-2.1,2.23-3.72,2.86l5.42,7.74H175.62z M174.04,293.04
		c-0.99-0.81-2.43-1.21-4.34-1.21h-5.11v9.39h5.11c1.91,0,3.35-0.41,4.34-1.23c0.99-0.82,1.48-1.98,1.48-3.48
		C175.52,295.01,175.03,293.85,174.04,293.04"/>
	<path style="clip-path:url(#SVGID_00000047022959739554828650000012991874542617659036_);fill:#FFFFFF;" d="M196.6,310.46
		c-1.92-1.04-3.42-2.48-4.51-4.32c-1.09-1.84-1.63-3.91-1.63-6.23c0-2.31,0.55-4.39,1.65-6.23c1.1-1.84,2.61-3.28,4.53-4.32
		c1.92-1.04,4.07-1.57,6.44-1.57c1.93,0,3.69,0.34,5.28,1.01c1.59,0.67,2.94,1.65,4.04,2.93l-2.83,2.66
		c-1.71-1.84-3.8-2.76-6.29-2.76c-1.62,0-3.06,0.35-4.34,1.06c-1.28,0.71-2.28,1.69-3,2.95c-0.72,1.26-1.08,2.68-1.08,4.27
		c0,1.59,0.36,3.02,1.08,4.27c0.72,1.26,1.72,2.24,3,2.94c1.28,0.71,2.72,1.06,4.34,1.06c2.49,0,4.59-0.93,6.29-2.79l2.83,2.69
		c-1.1,1.28-2.45,2.26-4.05,2.93c-1.6,0.67-3.37,1.01-5.3,1.01C200.67,312.02,198.52,311.5,196.6,310.46"/>
	<path style="clip-path:url(#SVGID_00000047022959739554828650000012991874542617659036_);fill:#FFFFFF;" d="M221.12,310.46
		c-1.93-1.04-3.44-2.49-4.54-4.34c-1.1-1.85-1.65-3.92-1.65-6.21c0-2.29,0.55-4.36,1.65-6.21c1.1-1.85,2.61-3.3,4.54-4.34
		c1.93-1.04,4.09-1.57,6.49-1.57s4.57,0.52,6.5,1.57c1.93,1.04,3.44,2.48,4.54,4.32c1.1,1.84,1.65,3.91,1.65,6.22
		c0,2.31-0.55,4.39-1.65,6.23c-1.1,1.84-2.61,3.28-4.54,4.32c-1.93,1.04-4.09,1.57-6.5,1.57S223.05,311.5,221.12,310.46
		 M231.85,307.13c1.26-0.71,2.24-1.69,2.96-2.96s1.08-2.69,1.08-4.26c0-1.57-0.36-2.99-1.08-4.26c-0.72-1.27-1.71-2.25-2.96-2.96
		s-2.67-1.06-4.24-1.06c-1.57,0-2.98,0.35-4.24,1.06c-1.26,0.71-2.24,1.7-2.96,2.96c-0.72,1.27-1.08,2.69-1.08,4.26
		c0,1.57,0.36,2.99,1.08,4.26c0.72,1.27,1.7,2.25,2.96,2.96c1.26,0.71,2.67,1.06,4.24,1.06
		C229.18,308.19,230.6,307.83,231.85,307.13"/>
	<path style="clip-path:url(#SVGID_00000047022959739554828650000012991874542617659036_);fill:#FFFFFF;" d="M247.47,309.28
		c-1.82-1.83-2.73-4.45-2.73-7.86v-13.29h4.37v13.12c0,4.62,2,6.93,5.99,6.93c3.97,0,5.96-2.31,5.96-6.93v-13.12h4.31v13.29
		c0,3.41-0.9,6.03-2.71,7.86c-1.81,1.83-4.34,2.74-7.59,2.74C251.82,312.02,249.28,311.11,247.47,309.28"/>
	<polygon style="clip-path:url(#SVGID_00000047022959739554828650000012991874542617659036_);fill:#FFFFFF;" points="292.42,288.13 
		292.42,311.69 288.82,311.69 275.83,295.73 275.83,311.69 271.49,311.69 271.49,288.13 275.09,288.13 288.08,304.08 288.08,288.13 
			"/>
	<polygon style="clip-path:url(#SVGID_00000047022959739554828650000012991874542617659036_);fill:#FFFFFF;" points="303.53,291.83 
		295.72,291.83 295.72,288.13 315.71,288.13 315.71,291.83 307.9,291.83 307.9,311.69 303.53,311.69 	"/>
	<polygon style="clip-path:url(#SVGID_00000047022959739554828650000012991874542617659036_);fill:#FFFFFF;" points="329.17,303.37 
		329.17,311.69 324.79,311.69 324.79,303.44 315.54,288.13 320.21,288.13 327.11,299.6 334.08,288.13 338.39,288.13 	"/>
	<path style="clip-path:url(#SVGID_00000047022959739554828650000012991874542617659036_);fill:#FFFFFF;" d="M356.27,310.46
		c-1.92-1.04-3.42-2.48-4.51-4.32c-1.09-1.84-1.63-3.91-1.63-6.23c0-2.31,0.55-4.39,1.65-6.23c1.1-1.84,2.61-3.28,4.52-4.32
		c1.92-1.04,4.07-1.57,6.45-1.57c1.93,0,3.69,0.34,5.28,1.01c1.59,0.67,2.94,1.65,4.04,2.93l-2.83,2.66
		c-1.71-1.84-3.8-2.76-6.29-2.76c-1.62,0-3.06,0.35-4.34,1.06c-1.28,0.71-2.28,1.69-2.99,2.95c-0.72,1.26-1.08,2.68-1.08,4.27
		c0,1.59,0.36,3.02,1.08,4.27c0.72,1.26,1.72,2.24,2.99,2.94c1.28,0.71,2.72,1.06,4.34,1.06c2.49,0,4.59-0.93,6.29-2.79l2.83,2.69
		c-1.1,1.28-2.45,2.26-4.05,2.93c-1.6,0.67-3.37,1.01-5.3,1.01C360.34,312.02,358.19,311.5,356.27,310.46"/>
	<path style="clip-path:url(#SVGID_00000047022959739554828650000012991874542617659036_);fill:#FFFFFF;" d="M380.79,310.46
		c-1.93-1.04-3.44-2.49-4.54-4.34c-1.1-1.85-1.65-3.92-1.65-6.21c0-2.29,0.55-4.36,1.65-6.21c1.1-1.85,2.61-3.3,4.54-4.34
		c1.93-1.04,4.09-1.57,6.49-1.57c2.4,0,4.56,0.52,6.49,1.57c1.93,1.04,3.44,2.48,4.54,4.32c1.1,1.84,1.65,3.91,1.65,6.22
		c0,2.31-0.55,4.39-1.65,6.23c-1.1,1.84-2.61,3.28-4.54,4.32c-1.93,1.04-4.1,1.57-6.49,1.57
		C384.88,312.02,382.71,311.5,380.79,310.46 M391.52,307.13c1.26-0.71,2.24-1.69,2.96-2.96s1.08-2.69,1.08-4.26
		c0-1.57-0.36-2.99-1.08-4.26c-0.72-1.27-1.7-2.25-2.96-2.96c-1.26-0.71-2.67-1.06-4.24-1.06c-1.57,0-2.98,0.35-4.24,1.06
		c-1.26,0.71-2.24,1.7-2.96,2.96c-0.72,1.27-1.08,2.69-1.08,4.26c0,1.57,0.36,2.99,1.08,4.26c0.72,1.27,1.7,2.25,2.96,2.96
		c1.26,0.71,2.67,1.06,4.24,1.06C388.85,308.19,390.26,307.83,391.52,307.13"/>
	<polygon style="clip-path:url(#SVGID_00000047022959739554828650000012991874542617659036_);fill:#FFFFFF;" points="426.25,311.68 
		426.21,296.07 418.47,308.99 416.52,308.99 408.78,296.27 408.78,311.68 404.61,311.68 404.61,288.13 408.21,288.13 417.56,303.74 
		426.75,288.13 430.35,288.13 430.39,311.68 	"/>
	<polygon style="clip-path:url(#SVGID_00000047022959739554828650000012991874542617659036_);fill:#FFFFFF;" points="458.38,311.68 
		458.35,296.07 450.61,308.99 448.66,308.99 440.92,296.27 440.92,311.68 436.74,311.68 436.74,288.13 440.34,288.13 449.7,303.74 
		458.89,288.13 462.49,288.13 462.52,311.68 	"/>
	<path style="clip-path:url(#SVGID_00000047022959739554828650000012991874542617659036_);fill:#FFFFFF;" d="M471.4,309.28
		c-1.82-1.83-2.73-4.45-2.73-7.86v-13.29h4.38v13.12c0,4.62,2,6.93,5.99,6.93c3.97,0,5.96-2.31,5.96-6.93v-13.12h4.31v13.29
		c0,3.41-0.9,6.03-2.71,7.86c-1.81,1.83-4.34,2.74-7.59,2.74C475.76,312.02,473.22,311.11,471.4,309.28"/>
	<polygon style="clip-path:url(#SVGID_00000047022959739554828650000012991874542617659036_);fill:#FFFFFF;" points="516.36,288.13 
		516.36,311.69 512.76,311.69 499.77,295.73 499.77,311.69 495.43,311.69 495.43,288.13 499.03,288.13 512.02,304.08 512.02,288.13 
			"/>
	
		<rect x="522.68" y="288.13" style="clip-path:url(#SVGID_00000047022959739554828650000012991874542617659036_);fill:#FFFFFF;" width="4.37" height="23.56"/>
	<path style="clip-path:url(#SVGID_00000047022959739554828650000012991874542617659036_);fill:#FFFFFF;" d="M537.88,310.46
		c-1.92-1.04-3.42-2.48-4.51-4.32c-1.09-1.84-1.63-3.91-1.63-6.23c0-2.31,0.55-4.39,1.65-6.23c1.1-1.84,2.61-3.28,4.53-4.32
		c1.92-1.04,4.07-1.57,6.45-1.57c1.93,0,3.69,0.34,5.28,1.01s2.94,1.65,4.04,2.93l-2.83,2.66c-1.7-1.84-3.8-2.76-6.29-2.76
		c-1.62,0-3.06,0.35-4.34,1.06c-1.28,0.71-2.28,1.69-2.99,2.95c-0.72,1.26-1.08,2.68-1.08,4.27c0,1.59,0.36,3.02,1.08,4.27
		c0.72,1.26,1.72,2.24,2.99,2.94c1.28,0.71,2.72,1.06,4.34,1.06c2.49,0,4.59-0.93,6.29-2.79l2.83,2.69
		c-1.1,1.28-2.45,2.26-4.05,2.93c-1.6,0.67-3.37,1.01-5.3,1.01C541.94,312.02,539.8,311.5,537.88,310.46"/>
	<path style="clip-path:url(#SVGID_00000047022959739554828650000012991874542617659036_);fill:#FFFFFF;" d="M573.16,306.23h-11.78
		l-2.32,5.45h-4.51l10.6-23.55h4.31l10.63,23.55h-4.58L573.16,306.23z M571.71,302.8l-4.44-10.3l-4.41,10.3H571.71z"/>
	<polygon style="clip-path:url(#SVGID_00000047022959739554828650000012991874542617659036_);fill:#FFFFFF;" points="584.8,291.83 
		577,291.83 577,288.13 596.99,288.13 596.99,291.83 589.18,291.83 589.18,311.69 584.8,311.69 	"/>
	
		<rect x="600.28" y="288.13" style="clip-path:url(#SVGID_00000047022959739554828650000012991874542617659036_);fill:#FFFFFF;" width="4.37" height="23.56"/>
	<path style="clip-path:url(#SVGID_00000047022959739554828650000012991874542617659036_);fill:#FFFFFF;" d="M615.53,310.46
		c-1.93-1.04-3.44-2.49-4.54-4.34c-1.1-1.85-1.65-3.92-1.65-6.21c0-2.29,0.55-4.36,1.65-6.21c1.1-1.85,2.61-3.3,4.54-4.34
		c1.93-1.04,4.09-1.57,6.49-1.57c2.4,0,4.56,0.52,6.49,1.57c1.93,1.04,3.44,2.48,4.54,4.32c1.1,1.84,1.65,3.91,1.65,6.22
		c0,2.31-0.55,4.39-1.65,6.23c-1.1,1.84-2.61,3.28-4.54,4.32c-1.93,1.04-4.1,1.57-6.49,1.57
		C619.62,312.02,617.45,311.5,615.53,310.46 M626.26,307.13c1.26-0.71,2.24-1.69,2.96-2.96s1.08-2.69,1.08-4.26
		c0-1.57-0.36-2.99-1.08-4.26c-0.72-1.27-1.71-2.25-2.96-2.96c-1.26-0.71-2.67-1.06-4.24-1.06c-1.57,0-2.98,0.35-4.24,1.06
		c-1.26,0.71-2.24,1.7-2.96,2.96c-0.72,1.27-1.08,2.69-1.08,4.26c0,1.57,0.36,2.99,1.08,4.26c0.72,1.27,1.7,2.25,2.96,2.96
		c1.26,0.71,2.67,1.06,4.24,1.06C623.59,308.19,625,307.83,626.26,307.13"/>
	<polygon style="clip-path:url(#SVGID_00000047022959739554828650000012991874542617659036_);fill:#FFFFFF;" points="660.28,288.13 
		660.28,311.69 656.68,311.69 643.69,295.73 643.69,311.69 639.35,311.69 639.35,288.13 642.95,288.13 655.94,304.08 655.94,288.13 
			"/>
	<path style="clip-path:url(#SVGID_00000047022959739554828650000012991874542617659036_);fill:#FFFFFF;" d="M668.64,311.25
		c-1.69-0.52-3.03-1.2-4.02-2.05l1.51-3.4c0.96,0.76,2.15,1.39,3.55,1.87c1.4,0.48,2.81,0.72,4.22,0.72c1.75,0,3.06-0.28,3.92-0.84
		c0.86-0.56,1.3-1.3,1.3-2.22c0-0.67-0.24-1.23-0.72-1.67c-0.48-0.44-1.09-0.78-1.83-1.03c-0.74-0.25-1.75-0.53-3.03-0.84
		c-1.79-0.43-3.25-0.85-4.36-1.28c-1.11-0.43-2.06-1.09-2.86-2c-0.8-0.91-1.2-2.14-1.2-3.68c0-1.3,0.35-2.48,1.06-3.55
		c0.71-1.07,1.77-1.91,3.2-2.54c1.42-0.63,3.17-0.94,5.23-0.94c1.43,0,2.85,0.18,4.24,0.54c1.39,0.36,2.59,0.88,3.6,1.55l-1.38,3.4
		c-1.03-0.61-2.11-1.07-3.23-1.38c-1.12-0.31-2.21-0.47-3.27-0.47c-1.73,0-3.01,0.29-3.85,0.88s-1.26,1.36-1.26,2.32
		c0,0.67,0.24,1.22,0.72,1.65c0.48,0.43,1.09,0.76,1.83,1.01c0.74,0.25,1.75,0.53,3.03,0.84c1.75,0.4,3.18,0.82,4.31,1.26
		c1.12,0.44,2.08,1.1,2.88,2c0.8,0.9,1.2,2.11,1.2,3.63c0,1.3-0.35,2.48-1.06,3.53c-0.71,1.05-1.78,1.9-3.21,2.52
		c-1.44,0.63-3.19,0.94-5.25,0.94C672.09,312.02,670.33,311.76,668.64,311.25"/>
</g>
</svg>
