<svg xmlns="http://www.w3.org/2000/svg" xmlns:xlink="http://www.w3.org/1999/xlink" width="250" zoomAndPan="magnify" viewBox="0 0 187.5 74.999997" height="100" preserveAspectRatio="xMidYMid meet" version="1.0"><path fill="#ffffff" d="M 148.011719 23.988281 L 145.867188 26.007812 L 141.132812 7.65625 L 128.148438 19.40625 L 126.734375 16.601562 L 110.601562 29.839844 L 108.578125 21.089844 L 96.703125 31.902344 L 93.984375 31.136719 L 92.8125 32.421875 L 82.765625 43.457031 L 94.664062 33.679688 L 96.394531 34.820312 L 107.457031 24.550781 L 107.472656 29.324219 L 104.398438 43.359375 L 111.257812 31.699219 L 125.582031 19.824219 L 124.210938 29.542969 L 121.226562 43.457031 L 128.628906 22.34375 L 140.042969 11.054688 L 136.210938 23.421875 L 141.28125 19.347656 L 140.984375 36.875 L 137.21875 32.542969 L 130.058594 43.15625 L 136.925781 35.898438 L 142.058594 43.753906 L 147.96875 29.542969 L 157.996094 42.914062 Z M 148.011719 23.988281 " fill-opacity="1" fill-rule="nonzero"/><path fill="#0a3161" d="M 30.5 32.300781 L 26.441406 43.457031 L 82.765625 43.457031 L 92.8125 32.421875 Z M 30.5 32.300781 " fill-opacity="1" fill-rule="nonzero"/><path fill="#ffffff" d="M 35.273438 34.105469 L 36.203125 36.976562 L 39.210938 36.976562 L 36.777344 38.753906 L 37.707031 41.628906 L 35.273438 39.851562 L 32.839844 41.628906 L 33.769531 38.753906 L 31.335938 36.976562 L 34.34375 36.976562 Z M 35.273438 34.105469 " fill-opacity="1" fill-rule="nonzero"/><path fill="#ffffff" d="M 46.164062 34.105469 L 47.089844 36.976562 L 50.097656 36.976562 L 47.667969 38.753906 L 48.59375 41.628906 L 46.164062 39.851562 L 43.730469 41.628906 L 44.660156 38.753906 L 42.226562 36.976562 L 45.234375 36.976562 Z M 46.164062 34.105469 " fill-opacity="1" fill-rule="nonzero"/><path fill="#ffffff" d="M 57.050781 34.105469 L 57.980469 36.976562 L 60.988281 36.976562 L 58.554688 38.753906 L 59.484375 41.628906 L 57.050781 39.851562 L 54.617188 41.628906 L 55.550781 38.753906 L 53.117188 36.976562 L 56.121094 36.976562 Z M 57.050781 34.105469 " fill-opacity="1" fill-rule="nonzero"/><path fill="#ffffff" d="M 67.941406 34.105469 L 68.871094 36.976562 L 71.878906 36.976562 L 69.445312 38.753906 L 70.375 41.628906 L 67.941406 39.851562 L 65.507812 41.628906 L 66.4375 38.753906 L 64.003906 36.976562 L 67.011719 36.976562 Z M 67.941406 34.105469 " fill-opacity="1" fill-rule="nonzero"/><path fill="#ffffff" d="M 78.832031 34.105469 L 79.761719 36.976562 L 82.765625 36.976562 L 80.332031 38.753906 L 81.261719 41.628906 L 78.832031 39.851562 L 76.398438 41.628906 L 77.328125 38.753906 L 74.894531 36.976562 L 77.902344 36.976562 Z M 78.832031 34.105469 " fill-opacity="1" fill-rule="nonzero"/><path fill="#b81926" d="M 42.675781 47.90625 L 24.851562 47.863281 L 21.394531 57.375 L 17.941406 66.886719 L 36.351562 66.886719 C 37.53125 66.785156 39.453125 66.082031 40.542969 64.070312 L 41.960938 60.039062 C 42.109375 58.988281 41.617188 57.5625 40.089844 57.390625 C 40.089844 57.390625 40.109375 57.382812 40.136719 57.375 C 40.472656 57.261719 42.730469 56.453125 43.753906 54.402344 L 44.867188 50.691406 C 44.984375 49.890625 44.625 48.066406 42.675781 47.90625 M 36.644531 60.207031 L 36.007812 62.304688 C 35.890625 62.789062 35.292969 63.042969 34.558594 63.027344 L 24.441406 63.027344 L 25.777344 59.308594 L 36.050781 59.308594 C 36.527344 59.308594 36.785156 59.769531 36.644531 60.207031 M 28.320312 52.132812 L 38.496094 52.132812 C 38.972656 52.132812 39.234375 52.59375 39.09375 53.03125 L 38.597656 54.671875 C 38.476562 55.152344 37.878906 55.410156 37.144531 55.390625 L 27.128906 55.390625 Z M 28.320312 52.132812 " fill-opacity="1" fill-rule="nonzero"/><path fill="#b81926" d="M 55.6875 51.671875 C 58.730469 51.671875 60.703125 54.222656 60.820312 55.839844 L 65.058594 54.492188 C 64.554688 51.613281 62.015625 47.863281 56.464844 47.863281 C 50.65625 47.863281 44.828125 52.191406 44.25 57.375 C 44.21875 57.652344 44.191406 57.929688 44.191406 58.210938 C 44.191406 63.398438 47.449219 66.699219 53.121094 66.886719 C 56.554688 67 62.402344 64.328125 64.253906 59.679688 L 60.3125 58.753906 C 60.3125 58.753906 58.464844 62.824219 54.046875 62.792969 C 49.597656 62.765625 48.492188 59.589844 48.523438 57.851562 C 48.527344 57.710938 48.546875 57.546875 48.578125 57.375 C 48.914062 55.417969 51.042969 51.671875 55.6875 51.671875 " fill-opacity="1" fill-rule="nonzero"/><path fill="#b81926" d="M 77.054688 51.671875 C 80.097656 51.671875 82.070312 54.222656 82.191406 55.839844 L 86.429688 54.492188 C 85.921875 51.613281 83.386719 47.863281 77.832031 47.863281 C 72.023438 47.863281 66.195312 52.191406 65.621094 57.375 C 65.589844 57.652344 65.5625 57.929688 65.5625 58.210938 C 65.5625 63.398438 68.820312 66.699219 74.488281 66.886719 C 77.921875 67 83.769531 64.328125 85.621094 59.679688 L 81.683594 58.753906 C 81.683594 58.753906 79.835938 62.824219 75.417969 62.792969 C 70.964844 62.765625 69.863281 59.589844 69.894531 57.851562 C 69.894531 57.710938 69.917969 57.546875 69.945312 57.375 C 70.285156 55.417969 72.410156 51.671875 77.054688 51.671875 " fill-opacity="1" fill-rule="nonzero"/><path fill="#b81926" d="M 114.214844 57.375 L 110.75 66.886719 L 115.972656 66.886719 L 122.808594 47.863281 L 117.675781 47.863281 Z M 114.214844 57.375 " fill-opacity="1" fill-rule="nonzero"/><path fill="#b81926" d="M 144.265625 47.863281 C 144.265625 47.863281 138.625 53.800781 135.222656 57.375 C 133.835938 58.835938 132.8125 59.902344 132.710938 60.007812 C 132.355469 60.367188 132.089844 60.519531 131.914062 60.007812 C 131.863281 59.863281 131.5625 58.808594 131.164062 57.375 C 130.167969 53.796875 128.539062 47.863281 128.539062 47.863281 L 122.808594 47.863281 C 122.808594 47.863281 124.207031 52.828125 125.484375 57.375 C 126.519531 61.050781 127.472656 64.453125 127.554688 64.75 C 127.734375 65.410156 129.257812 66.90625 130.539062 66.890625 C 131.820312 66.878906 132.328125 66.398438 132.867188 65.886719 C 133.121094 65.644531 137.027344 61.585938 141.0625 57.375 C 145.539062 52.710938 150.175781 47.863281 150.175781 47.863281 Z M 144.265625 47.863281 " fill-opacity="1" fill-rule="nonzero"/><path fill="#b81926" d="M 153.128906 52.691406 C 153.21875 52.453125 153.546875 51.644531 154.382812 51.644531 L 167.632812 51.644531 L 169.097656 47.863281 L 152.59375 47.863281 C 151.847656 47.863281 149.371094 49.183594 148.863281 50.503906 C 148.601562 51.179688 147.511719 54.355469 146.484375 57.375 C 145.503906 60.253906 144.578125 62.988281 144.476562 63.28125 C 144.265625 63.878906 144.175781 66.757812 146.746094 66.730469 C 149.3125 66.699219 162.234375 66.730469 162.234375 66.730469 L 163.84375 62.378906 C 163.84375 62.378906 151.519531 62.410156 151.042969 62.410156 C 150.566406 62.410156 150.058594 62.082031 150.175781 61.71875 C 150.296875 61.359375 150.621094 60.070312 150.742188 59.710938 C 150.859375 59.351562 151.203125 59.277344 151.589844 59.277344 C 151.980469 59.277344 164.8125 59.339844 164.8125 59.339844 L 165.5625 57.378906 L 166.320312 55.394531 C 166.320312 55.394531 153.367188 55.453125 152.832031 55.453125 C 152.292969 55.453125 152.292969 55.183594 152.382812 54.882812 C 152.476562 54.582031 153.039062 52.929688 153.128906 52.691406 " fill-opacity="1" fill-rule="nonzero"/><path fill="#b81926" d="M 100.035156 62.167969 C 99.082031 62.226562 98.871094 61.117188 99.261719 60.097656 C 99.367188 59.816406 99.746094 58.757812 100.238281 57.375 C 101.523438 53.742188 103.589844 47.863281 103.589844 47.863281 L 98.488281 47.863281 L 94.992188 57.375 L 93.175781 62.316406 C 92.519531 63.847656 93.382812 66.367188 96.101562 66.890625 L 109.679688 66.890625 L 111.351562 62.140625 C 111.347656 62.136719 100.691406 62.125 100.035156 62.167969 " fill-opacity="1" fill-rule="nonzero"/></svg>