<svg width="152" height="40" viewBox="0 0 152 40" fill="none" xmlns="http://www.w3.org/2000/svg">
<path fill-rule="evenodd" clip-rule="evenodd" d="M30.127 7.02938H13.5576V0H37.1562V23.5985H30.127V7.02938Z" fill="#F5F5F5"/>
<path fill-rule="evenodd" clip-rule="evenodd" d="M17.184 21.0162C16.1106 20.299 14.8486 19.9162 13.5576 19.9162V12.8868C16.2389 12.8868 18.8599 13.6819 21.0893 15.1715C23.3187 16.6612 25.0562 18.7784 26.0823 21.2556C27.1084 23.7329 27.377 26.4586 26.8539 29.0882C26.3308 31.7182 25.0397 34.1335 23.1436 36.0297C21.2477 37.9255 18.8321 39.2166 16.2024 39.7397C13.5726 40.2628 10.8469 39.9942 8.36968 38.9681C5.89254 37.942 3.77531 36.2046 2.28568 33.9751C0.796051 31.7459 0.000976562 29.1248 0.000976562 26.4433H7.03035C7.03035 27.7344 7.41317 28.9965 8.1304 30.0697C8.84759 31.1432 9.86703 31.9799 11.0597 32.4741C12.2525 32.9679 13.5648 33.0973 14.831 32.8452C16.0972 32.5935 17.2602 31.9719 18.1731 31.0592C19.0859 30.146 19.7076 28.9832 19.9595 27.7171C20.2113 26.4509 20.0821 25.1381 19.5881 23.9456C19.094 22.7529 18.2574 21.7335 17.184 21.0162Z" fill="#F5F5F5"/>
<path d="M48.2021 34.494V5.00195H59.1142C61.4736 5.00195 63.4257 5.39515 64.9705 6.18162C66.5153 6.96805 67.6669 8.04945 68.4252 9.42573C69.1835 10.802 69.5627 12.3468 69.5627 14.0602C69.5627 15.6893 69.1976 17.192 68.4674 18.5682C67.7368 19.9164 66.5993 21.0119 65.0545 21.8545C63.5098 22.669 61.5295 23.0763 59.1142 23.0763H53.5949V34.494H48.2021ZM53.5949 18.6946H58.7769C60.659 18.6946 62.0072 18.2874 62.8218 17.4728C63.6642 16.6302 64.0855 15.4927 64.0855 14.0602C64.0855 12.5996 63.6642 11.4621 62.8218 10.6475C62.0072 9.80493 60.659 9.38359 58.7769 9.38359H53.5949V18.6946Z" fill="#F5F5F5"/>
<path d="M80.644 34.9991C78.5375 34.9991 76.6699 34.5496 75.0406 33.6509C73.4114 32.7523 72.1336 31.4881 71.2068 29.8593C70.28 28.2301 69.8164 26.3483 69.8164 24.2137C69.8164 22.0508 70.2659 20.1268 71.1646 18.4415C72.0914 16.7563 73.3555 15.4502 74.9566 14.5233C76.5854 13.5683 78.4953 13.0908 80.6863 13.0908C82.7369 13.0908 84.5482 13.5402 86.1212 14.439C87.6941 15.3378 88.916 16.5737 89.7865 18.1466C90.6856 19.6914 91.1347 21.4188 91.1347 23.3288C91.1347 23.6379 91.1207 23.9608 91.0929 24.2977C91.0929 24.6346 91.0788 24.9861 91.0507 25.3512H75.1669C75.2795 26.98 75.8412 28.2582 76.8524 29.185C77.8914 30.1118 79.1415 30.5754 80.6022 30.5754C81.6975 30.5754 82.6102 30.3366 83.3404 29.8593C84.0991 29.3535 84.6608 28.7077 85.0259 27.9213H90.5031C90.1098 29.2413 89.4496 30.4491 88.5228 31.5444C87.6238 32.6115 86.5003 33.4543 85.1522 34.0723C83.8321 34.6903 82.3296 34.9991 80.644 34.9991ZM80.6863 17.4725C79.3662 17.4725 78.2006 17.8517 77.1894 18.6101C76.1781 19.3403 75.5324 20.4638 75.2513 21.9805H85.658C85.5735 20.6043 85.0681 19.5088 84.1409 18.6943C83.2141 17.8798 82.0626 17.4725 80.6863 17.4725Z" fill="#F5F5F5"/>
<path d="M93.5645 34.4937V13.5964H98.3251L98.7465 17.1354C99.3926 15.8996 100.319 14.9166 101.527 14.1863C102.763 13.456 104.21 13.0908 105.867 13.0908C108.451 13.0908 110.459 13.9054 111.891 15.5345C113.324 17.1635 114.04 19.551 114.04 22.6968V34.4937H108.647V23.2024C108.647 21.4048 108.282 20.0285 107.552 19.0735C106.822 18.1185 105.684 17.641 104.139 17.641C102.623 17.641 101.373 18.1747 100.39 19.242C99.4348 20.3093 98.9572 21.798 98.9572 23.7078V34.4937H93.5645Z" fill="#F5F5F5"/>
<path d="M126.402 34.4929C124.211 34.4929 122.456 33.9593 121.136 32.8918C119.816 31.8243 119.156 29.9285 119.156 27.204V18.1037H115.574V13.5956H119.156L119.788 7.99219H124.548V13.5956H130.194V18.1037H124.548V27.2462C124.548 28.2574 124.759 28.9595 125.18 29.3527C125.63 29.7178 126.388 29.9003 127.455 29.9003H130.068V34.4929H126.402Z" fill="#F5F5F5"/>
<path d="M139.922 34.9991C138.124 34.9991 136.649 34.7184 135.497 34.1567C134.346 33.5669 133.489 32.7945 132.927 31.8391C132.366 30.8842 132.085 29.8311 132.085 28.6796C132.085 26.7416 132.843 25.1686 134.36 23.9608C135.877 22.753 138.152 22.1491 141.185 22.1491H146.494V21.6435C146.494 20.211 146.087 19.1577 145.272 18.4837C144.457 17.8096 143.446 17.4725 142.239 17.4725C141.143 17.4725 140.188 17.7393 139.373 18.273C138.559 18.7786 138.053 19.5369 137.857 20.5481H132.59C132.731 19.0314 133.237 17.7113 134.107 16.5878C135.006 15.4642 136.158 14.6075 137.562 14.0177C138.966 13.3998 140.539 13.0908 142.281 13.0908C145.258 13.0908 147.603 13.8352 149.317 15.3238C151.03 16.8124 151.887 18.919 151.887 21.6435V34.4937H147.294L146.789 31.123C146.171 32.2464 145.3 33.1736 144.177 33.9038C143.081 34.634 141.663 34.9991 139.922 34.9991ZM141.143 30.7861C142.688 30.7861 143.882 30.2803 144.724 29.2694C145.595 28.2582 146.143 27.0081 146.367 25.5196H141.775C140.342 25.5196 139.318 25.7866 138.7 26.3202C138.082 26.8256 137.773 27.4577 137.773 28.216C137.773 29.0306 138.082 29.6627 138.7 30.1118C139.318 30.5613 140.132 30.7861 141.143 30.7861Z" fill="#F5F5F5"/>
</svg>
