<svg width="154" height="40" viewBox="0 0 154 40" fill="none" xmlns="http://www.w3.org/2000/svg">
<path d="M57.5377 32.3845C55.1213 32.3845 53.0099 31.8354 51.2039 30.737C49.3975 29.6386 47.9941 28.1131 46.9936 26.1602C45.9926 24.1833 45.4922 21.8889 45.4922 19.2772C45.4922 16.6411 46.0047 14.3223 47.0301 12.3208C48.0796 10.2949 49.5565 8.72053 51.4599 7.59778C53.3883 6.45057 55.6707 5.87695 58.3066 5.87695C61.309 5.87695 63.7984 6.59702 65.7758 8.03711C67.7527 9.4772 69.0342 11.4665 69.6201 14.005H64.3844C63.9939 12.809 63.2859 11.8814 62.2609 11.2224C61.2355 10.539 59.9176 10.1973 58.3066 10.1973C55.7437 10.1973 53.7668 11.0149 52.3754 12.6503C50.984 14.2613 50.2885 16.4824 50.2885 19.3138C50.2885 22.1452 50.9719 24.3418 52.3389 25.9042C53.7303 27.4417 55.6097 28.2106 57.9771 28.2106C60.296 28.2106 62.041 27.5882 63.2129 26.3432C64.4088 25.0742 65.1288 23.4144 65.3728 21.3641H58.8926V17.8493H70.0961V31.945H65.7758L65.4093 28.5766C64.5798 29.7971 63.5424 30.737 62.2974 31.396C61.0525 32.055 59.4661 32.3845 57.5377 32.3845Z" fill="#F5F5F5"/>
<path d="M72.7119 31.9459V5.58496H77.3982V31.9459H72.7119Z" fill="#F5F5F5"/>
<path d="M89.0691 32.3853C87.3117 32.3853 85.7253 31.9828 84.3094 31.1773C82.9184 30.3719 81.8079 29.261 80.9779 27.8455C80.1725 26.4051 79.7695 24.7456 79.7695 22.8661C79.7695 20.9866 80.1845 19.3391 81.0145 17.9234C81.8444 16.4833 82.9549 15.3605 84.3463 14.555C85.7618 13.7495 87.3482 13.3468 89.1056 13.3468C90.8386 13.3468 92.401 13.7495 93.7924 14.555C95.2079 15.3605 96.3183 16.4833 97.1238 17.9234C97.9537 19.3391 98.3687 20.9866 98.3687 22.8661C98.3687 24.7456 97.9537 26.4051 97.1238 27.8455C96.3183 29.261 95.2079 30.3719 93.7924 31.1773C92.3765 31.9828 90.8021 32.3853 89.0691 32.3853ZM89.0691 28.3215C90.2896 28.3215 91.3515 27.87 92.2545 26.9666C93.1575 26.0391 93.609 24.6722 93.609 22.8661C93.609 21.0598 93.1575 19.7052 92.2545 18.8021C91.3515 17.8746 90.3016 17.4108 89.1056 17.4108C87.8611 17.4108 86.7872 17.8746 85.8838 18.8021C85.0053 19.7052 84.5658 21.0598 84.5658 22.8661C84.5658 24.6722 85.0053 26.0391 85.8838 26.9666C86.7872 27.87 87.8487 28.3215 89.0691 28.3215Z" fill="#F5F5F5"/>
<path d="M108.235 32.3852C106.624 32.3852 105.209 32.1287 103.988 31.6162C102.768 31.0793 101.791 30.3473 101.059 29.4198C100.327 28.4919 99.8873 27.4179 99.7412 26.1975H104.464C104.611 26.9054 105.001 27.5159 105.636 28.0284C106.294 28.5164 107.137 28.7604 108.162 28.7604C109.187 28.7604 109.931 28.5533 110.395 28.1383C110.883 27.7234 111.128 27.2474 111.128 26.7104C111.128 25.929 110.786 25.4045 110.102 25.136C109.419 24.843 108.467 24.5625 107.246 24.294C106.465 24.123 105.672 23.9155 104.867 23.6715C104.061 23.4274 103.317 23.1222 102.634 22.7561C101.974 22.3656 101.437 21.8774 101.023 21.2916C100.608 20.6814 100.4 19.937 100.4 19.0582C100.4 17.4473 101.035 16.0926 102.304 14.9943C103.598 13.8959 105.404 13.3467 107.722 13.3467C109.87 13.3467 111.579 13.8471 112.848 14.8478C114.142 15.8485 114.911 17.2276 115.155 18.985H110.725C110.456 17.6426 109.443 16.9713 107.686 16.9713C106.807 16.9713 106.124 17.1422 105.636 17.4839C105.172 17.8256 104.94 18.2528 104.94 18.7654C104.94 19.3023 105.294 19.7295 106.002 20.0468C106.709 20.3641 107.649 20.657 108.821 20.9255C110.09 21.2184 111.25 21.5479 112.299 21.914C113.373 22.2558 114.227 22.7805 114.862 23.4884C115.497 24.172 115.814 25.1605 115.814 26.4539C115.839 27.5769 115.546 28.5898 114.935 29.4928C114.325 30.3958 113.446 31.1037 112.299 31.6162C111.152 32.1287 109.797 32.3852 108.235 32.3852Z" fill="#F5F5F5"/>
<path d="M125.64 32.3853C124.029 32.3853 122.613 32.1289 121.393 31.6164C120.172 31.0794 119.196 30.3474 118.463 29.4199C117.731 28.492 117.292 27.418 117.146 26.1976H121.869C122.015 26.9056 122.406 27.516 123.04 28.0285C123.699 28.5165 124.541 28.7605 125.567 28.7605C126.592 28.7605 127.336 28.5534 127.8 28.1385C128.288 27.7235 128.532 27.2475 128.532 26.7105C128.532 25.9291 128.19 25.4046 127.507 25.1361C126.824 24.8431 125.872 24.5626 124.651 24.2941C123.87 24.1231 123.077 23.9157 122.271 23.6717C121.466 23.4275 120.721 23.1223 120.038 22.7562C119.379 22.3657 118.842 21.8775 118.427 21.2917C118.012 20.6815 117.804 19.9371 117.804 19.0584C117.804 17.4474 118.439 16.0927 119.708 14.9944C121.002 13.896 122.808 13.3468 125.127 13.3468C127.275 13.3468 128.984 13.8472 130.253 14.8479C131.546 15.8486 132.315 17.2277 132.559 18.9851H128.13C127.861 17.6427 126.848 16.9714 125.091 16.9714C124.212 16.9714 123.528 17.1423 123.04 17.484C122.576 17.8257 122.345 18.2529 122.345 18.7655C122.345 19.3025 122.698 19.7296 123.406 20.0469C124.114 20.3642 125.054 20.6571 126.226 20.9256C127.495 21.2185 128.654 21.548 129.703 21.9141C130.778 22.2559 131.632 22.7807 132.266 23.4885C132.901 24.1721 133.218 25.1606 133.218 26.4541C133.243 27.577 132.95 28.5899 132.34 29.4929C131.729 30.3959 130.851 31.1039 129.703 31.6164C128.556 32.1289 127.202 32.3853 125.64 32.3853Z" fill="#F5F5F5"/>
<path d="M136.844 40L141.054 30.7369H139.956L132.89 13.7852H137.979L143.068 26.5631L148.377 13.7852H153.356L141.823 40H136.844Z" fill="#F5F5F5"/>
<path d="M10.9976 29.0134L29.4695 10.5415L26.432 7.50391L7.95996 25.9758L10.9976 29.0134Z" fill="#F5F5F5"/>
<path d="M18.3005 10.5415L10.9976 17.8444L7.95996 14.8068L15.2629 7.50391L18.3005 10.5415Z" fill="#F5F5F5"/>
<path d="M22.1655 29.0122L29.4684 21.7095L26.4308 18.6719L19.1279 25.9746L22.1655 29.0122Z" fill="#F5F5F5"/>
<path fill-rule="evenodd" clip-rule="evenodd" d="M0.886719 36.085V0H36.9717V36.085H0.886719ZM5.18254 4.29583H32.6759V31.7891H5.18254V4.29583Z" fill="#F5F5F5"/>
</svg>
