<svg width="144" height="40" viewBox="0 0 144 40" fill="none" xmlns="http://www.w3.org/2000/svg">
<path d="M50.8339 35.3041C48.1864 35.3041 45.9135 34.8362 44.015 33.9003C42.1166 32.9644 40.5656 31.7478 39.3625 30.2503C38.186 28.7529 37.317 27.1218 36.7554 25.357C36.1938 23.5922 35.9131 21.8942 35.9131 20.2631V19.3807C35.9131 17.5624 36.1938 15.7708 36.7554 14.0061C37.3437 12.2412 38.2394 10.6369 39.4426 9.19295C40.6462 7.74897 42.1702 6.59919 44.015 5.74353C45.887 4.86114 48.0931 4.41992 50.6334 4.41992C53.2803 4.41992 55.5803 4.90125 57.5317 5.86384C59.5108 6.79975 61.0884 8.13673 62.2649 9.87477C63.4414 11.5861 64.1501 13.5916 64.3909 15.8912H58.6552C58.4409 14.5542 57.9598 13.4312 57.2114 12.522C56.4894 11.5861 55.5665 10.8909 54.4435 10.4363C53.3206 9.95503 52.0502 9.71437 50.6334 9.71437C49.1895 9.71437 47.9058 9.9684 46.7829 10.4765C45.6594 10.9577 44.7237 11.653 43.9753 12.5621C43.2263 13.4713 42.6513 14.5409 42.2503 15.7708C41.8758 17.0009 41.6891 18.3646 41.6891 19.862C41.6891 21.306 41.8758 22.6429 42.2503 23.8729C42.6513 25.103 43.2395 26.1859 44.015 27.1218C44.7905 28.031 45.7401 28.7396 46.863 29.2476C48.013 29.7556 49.3364 30.0097 50.8339 30.0097C53.0262 30.0097 54.8716 29.4749 56.369 28.4053C57.893 27.309 58.8154 25.7848 59.1363 23.8328H64.872C64.6047 25.9185 63.896 27.8304 62.746 29.5685C61.5965 31.3065 60.019 32.697 58.0134 33.7398C56.0078 34.7827 53.6144 35.3041 50.8339 35.3041Z" fill="#F5F5F5"/>
<path d="M67.2305 34.542V4.41992H72.8054V16.4626C73.3627 15.0903 74.1515 14.0308 75.1722 13.2841C76.2952 12.4819 77.7125 12.0808 79.4237 12.0808H79.664C82.1513 12.0808 84.0359 12.9365 85.3196 14.6478C86.6032 16.3591 87.2451 18.8459 87.2451 22.1081V34.542H81.6696V21.5867C81.6696 20.1963 81.2686 19.1 80.4666 18.2978C79.6911 17.4956 78.6615 17.0945 77.3778 17.0945C76.014 17.0945 74.9044 17.549 74.0488 18.4582C73.2202 19.3406 72.8054 20.5038 72.8054 21.9477V34.542H67.2305Z" fill="#F5F5F5"/>
<path fill-rule="evenodd" clip-rule="evenodd" d="M104.431 30.3474V34.5416H108.842V21.0248C108.842 18.9926 108.454 17.3481 107.679 16.0913C106.931 14.8346 105.808 13.9121 104.31 13.3238C102.839 12.7355 100.981 12.4414 98.7347 12.4414C98.0127 12.4414 97.2372 12.4548 96.4087 12.4815C95.6061 12.4815 94.8174 12.5082 94.0418 12.5617C93.2663 12.6152 92.5715 12.6687 91.9561 12.7222V17.4551C92.7051 17.4016 93.5475 17.3615 94.4832 17.3347C95.4459 17.2813 96.3949 17.2412 97.3311 17.2144C98.2668 17.1877 99.0688 17.1743 99.7377 17.1743C101.021 17.1743 101.97 17.4818 102.585 18.0968C103.2 18.7118 103.508 19.6477 103.508 20.9044V21.105H99.0556C97.1306 21.105 95.4459 21.359 94.0021 21.8671C92.5847 22.3752 91.475 23.1372 90.673 24.1533C89.8975 25.1694 89.5098 26.4797 89.5098 28.084C89.5098 29.5547 89.8307 30.8115 90.4725 31.8543C91.1409 32.8972 92.0633 33.6993 93.2398 34.2609C94.4434 34.8224 95.8337 35.1032 97.4112 35.1032C98.9352 35.1032 100.219 34.8358 101.262 34.301C102.331 33.7394 103.16 32.9373 103.748 31.8944C104.024 31.4271 104.252 30.9114 104.431 30.3474ZM103.508 26.4797V24.4341H98.9755C97.6918 24.4341 96.7025 24.755 96.0071 25.3967C95.3388 26.0117 95.0046 26.8139 95.0046 27.8033C95.0046 28.7927 95.3388 29.5948 96.0071 30.2098C96.7025 30.8248 97.6918 31.1323 98.9755 31.1323C99.751 31.1323 100.46 30.9986 101.101 30.7313C101.77 30.4371 102.318 29.9558 102.746 29.2873C103.2 28.5921 103.455 27.6562 103.508 26.4797Z" fill="#F5F5F5"/>
<path d="M113.852 34.5416V12.4414H119.427V34.5416H113.852Z" fill="#F5F5F5"/>
<path d="M123.846 12.441V34.5413H129.421V21.7464C129.421 20.3292 129.835 19.2061 130.665 18.3772C131.52 17.5216 132.63 17.0937 133.994 17.0937C135.331 17.0937 136.374 17.5082 137.122 18.3371C137.898 19.166 138.285 20.249 138.285 21.586V34.5413H143.86V22.0673C143.86 18.7515 143.192 16.2648 141.855 14.6069C140.518 12.9224 138.553 12.0801 135.959 12.0801H135.719C133.98 12.0801 132.523 12.4544 131.346 13.2031C130.197 13.9518 129.328 15.0749 128.74 16.5723C128.548 17.0515 128.387 17.5703 128.258 18.1289V12.441H123.846Z" fill="#F5F5F5"/>
<path d="M0.886719 25.3169C0.886719 27.274 2.47358 28.8612 4.43102 28.8612C6.38846 28.8612 7.97532 27.274 7.97532 25.3169C7.97532 23.882 5.89476 22.5321 5.89476 20.0005C5.89476 17.722 7.97532 16.119 7.97532 14.6841C7.97532 12.727 6.38846 11.1398 4.43102 11.1398C2.47358 11.1398 0.886719 12.727 0.886719 14.6841C0.886719 16.119 2.96733 17.722 2.96728 20.0005C2.96728 22.279 0.886719 23.882 0.886719 25.3169Z" fill="#F5F5F5"/>
<path d="M18.1006 3.54431C18.1006 1.5872 19.6874 0 21.6448 0C23.6023 0 25.1891 1.5872 25.1891 3.54431C25.1891 4.16057 24.8053 4.7612 24.3674 5.44651C23.7857 6.35674 23.1086 7.41643 23.1086 8.86074C23.1086 10.131 23.7553 11.1915 24.3276 12.1298C24.7818 12.8744 25.1891 13.5422 25.1891 14.1772C25.1891 14.2622 25.1862 14.3466 25.1802 14.4303C25.1862 14.5139 25.1891 14.5983 25.1891 14.6834C25.1891 15.2997 24.8053 15.9003 24.3674 16.5856C23.7857 17.4958 23.1086 18.5555 23.1086 19.9998C23.1086 21.2701 23.7553 22.3306 24.3276 23.2689C24.7818 24.0135 25.1891 24.6814 25.1891 25.3163C25.1891 25.4014 25.1862 25.4858 25.1802 25.5694C25.1862 25.653 25.1891 25.7374 25.1891 25.8226C25.1891 26.4575 24.7818 27.1253 24.3276 27.8699C23.7553 28.8083 23.1086 29.8687 23.1086 31.139C23.1086 32.5833 23.7857 33.643 24.3674 34.5532C24.8053 35.2385 25.1891 35.8392 25.1891 36.4554C25.1891 38.4125 23.6023 40 21.6448 40C19.6874 40 18.1006 38.4125 18.1006 36.4554C18.1006 35.8205 18.5079 35.1527 18.962 34.4081C19.5344 33.4697 20.1811 32.4094 20.1811 31.139C20.1811 29.8687 19.5344 28.8083 18.962 27.8699C18.5079 27.1253 18.1006 26.4575 18.1006 25.8226C18.1006 25.7374 18.1036 25.653 18.1095 25.5694C18.1036 25.4858 18.1006 25.4014 18.1006 25.3163C18.1006 24.6813 18.5079 24.0135 18.962 23.2689C19.5344 22.3306 20.1811 21.2701 20.1811 19.9998C20.1811 18.7295 19.5344 17.6691 18.962 16.7307C18.5079 15.9861 18.1006 15.3183 18.1006 14.6834C18.1006 14.5983 18.1036 14.5139 18.1095 14.4303C18.1036 14.3467 18.1006 14.2622 18.1006 14.1772C18.1006 13.5422 18.5079 12.8744 18.962 12.1298C19.5344 11.1915 20.1811 10.131 20.1811 8.86074C20.1811 7.59037 19.5344 6.53001 18.962 5.59161C18.5079 4.84698 18.1006 4.17918 18.1006 3.54431Z" fill="#F5F5F5"/>
<path d="M13.0384 34.4309C11.0809 34.4309 9.49414 32.8437 9.49414 30.8866C9.49414 30.2518 9.90145 29.584 10.3556 28.8393C10.9279 27.9009 11.5747 26.8406 11.5747 25.5702C11.5747 24.2999 10.9279 23.2395 10.3556 22.3011C9.90145 21.5564 9.49414 20.8886 9.49414 20.2538C9.49414 20.1687 9.49712 20.0843 9.50303 20.0006C9.49712 19.917 9.49414 19.8326 9.49414 19.7475C9.49414 19.1125 9.90145 18.4447 10.3556 17.7001C10.9279 16.7618 11.5747 15.7014 11.5747 14.431C11.5747 13.1607 10.9279 12.1003 10.3556 11.1619C9.90145 10.4173 9.49414 9.7495 9.49414 9.11462C9.49414 7.15751 11.0809 5.57031 13.0384 5.57031C14.9958 5.57031 16.5827 7.15751 16.5827 9.11462C16.5827 9.73088 16.1989 10.3315 15.7609 11.0168C15.1793 11.9271 14.5021 12.9867 14.5021 14.431C14.5021 15.7014 15.1489 16.7618 15.7212 17.7001C16.1754 18.4447 16.5827 19.1125 16.5827 19.7475C16.5827 19.8325 16.5797 19.917 16.5738 20.0006C16.5797 20.0842 16.5827 20.1687 16.5827 20.2538C16.5827 20.8886 16.1754 21.5565 15.7212 22.3011C15.1489 23.2395 14.5021 24.2999 14.5021 25.5702C14.5021 27.0145 15.1793 28.0741 15.7609 28.9844C16.1989 29.6697 16.5827 30.2703 16.5827 30.8866C16.5827 32.8437 14.9958 34.4309 13.0384 34.4309Z" fill="#F5F5F5"/>
</svg>
