<svg width="1481" height="350" viewBox="0 0 1481 350" fill="none" xmlns="http://www.w3.org/2000/svg">
<path d="M174.707 349.437V322.249C85.7138 322.249 0 263.706 0 174.718H27.1678C27.1678 85.7304 85.7138 0 174.707 0V27.1883C263.701 27.1883 349.437 85.7304 349.437 174.718H322.27C322.27 263.706 263.701 349.437 174.707 349.437Z" fill="#0DA678"/>
<path d="M1368.59 165.306C1373.6 155.762 1380.52 148.604 1389.59 143.355C1398.66 138.106 1408.92 135.481 1420.61 135.481C1432.3 135.481 1442.56 137.867 1451.63 142.639C1460.69 147.411 1467.61 154.331 1472.86 162.92C1478.11 171.749 1480.74 182.008 1480.97 193.7C1480.97 197.04 1480.74 200.142 1480.26 203.482H1388.16V204.914C1388.64 215.651 1391.98 224.002 1398.18 230.206C1404.15 236.409 1412.26 239.511 1422.28 239.511C1430.15 239.511 1436.83 237.841 1442.32 234.023C1447.57 230.206 1451.15 224.956 1453.06 218.037H1478.83C1476.44 230.444 1470.48 240.704 1460.69 248.578C1450.91 256.69 1438.74 260.508 1424.19 260.508C1411.3 260.508 1400.33 258.122 1390.78 252.873C1381.24 247.623 1374.08 240.465 1368.83 230.921C1363.58 221.616 1361.2 210.64 1361.2 198.233C1361.2 185.826 1363.58 174.85 1368.59 165.306ZM1454.73 184.633C1453.54 175.805 1449.96 168.885 1443.99 163.875C1438.03 158.864 1430.63 156.24 1421.56 156.24C1412.97 156.24 1405.82 158.864 1399.61 164.113C1393.41 169.363 1390.07 176.043 1389.11 184.633H1454.73Z" fill="#F2F2F2"/>
<path d="M1246.83 165.306C1251.84 155.762 1258.76 148.604 1267.83 143.355C1276.9 138.106 1287.16 135.481 1298.85 135.481C1310.54 135.481 1320.8 137.867 1329.87 142.639C1338.93 147.411 1345.85 154.331 1351.1 162.92C1356.35 171.749 1358.98 182.008 1359.21 193.7C1359.21 197.04 1358.98 200.142 1358.5 203.482H1266.4V204.914C1266.88 215.651 1270.22 224.002 1276.42 230.206C1282.38 236.409 1290.5 239.511 1300.52 239.511C1308.39 239.511 1315.07 237.841 1320.56 234.023C1325.81 230.206 1329.39 224.956 1331.3 218.037H1357.07C1354.68 230.444 1348.72 240.704 1338.93 248.578C1329.15 256.69 1316.98 260.508 1302.43 260.508C1289.54 260.508 1278.57 258.122 1269.02 252.873C1259.48 247.623 1252.32 240.465 1247.07 230.921C1241.82 221.616 1239.44 210.64 1239.44 198.233C1239.44 185.826 1241.82 174.85 1246.83 165.306ZM1332.97 184.633C1331.78 175.805 1328.2 168.885 1322.23 163.875C1316.27 158.864 1308.87 156.24 1299.8 156.24C1291.21 156.24 1284.06 158.864 1277.85 164.113C1271.65 169.363 1268.31 176.043 1267.35 184.633H1332.97Z" fill="#F2F2F2"/>
<path d="M1137.82 92.0562H1163.59V196.563L1219.42 136.913H1249.25L1203.67 186.065L1252.11 259.076H1221.57L1185.3 204.914L1163.59 227.82V259.076H1137.82V92.0562Z" fill="#F2F2F2"/>
<path d="M1126.74 136.913V259.076H1104.08L1101.21 243.567C1091.91 255.02 1079.26 260.508 1063.51 260.508C1049.2 260.508 1037.51 256.213 1028.68 247.146C1019.61 238.318 1015.32 224.002 1015.32 204.198V136.913H1041.09V201.574C1041.09 213.504 1043.47 222.57 1048.24 228.774C1053.02 234.978 1059.94 238.079 1069.48 238.079C1079.26 238.079 1086.9 234.5 1092.62 227.342C1098.11 220.185 1100.97 210.163 1100.97 197.517V136.913H1126.74Z" fill="#F2F2F2"/>
<path d="M1017.51 236.648V259.076H1003.91C995.793 259.076 990.066 257.406 986.726 254.066C983.147 250.725 981.477 245.953 981.477 239.511C972.171 253.588 958.81 260.508 941.153 260.508C927.315 260.508 916.339 257.406 908.227 250.964C899.876 244.76 895.819 235.932 895.819 224.718C895.819 212.311 900.114 202.528 909.181 195.847C918.009 189.166 930.894 185.587 948.073 185.587H978.852V178.191C978.852 171.51 976.466 166.022 971.694 162.205C966.922 158.387 960.241 156.24 951.89 156.24C944.255 156.24 938.052 157.91 933.28 161.25C928.508 164.591 925.644 168.885 924.69 174.135H899.398C900.591 161.966 906.079 152.422 915.623 145.741C925.167 139.06 937.574 135.481 953.083 135.481C969.308 135.481 981.954 139.299 991.021 146.934C999.849 154.569 1004.38 165.545 1004.38 179.861V228.058C1004.38 233.785 1007.01 236.648 1012.49 236.648H1017.51ZM978.852 204.675H946.88C938.767 204.675 932.802 206.346 928.508 209.447C924.213 212.549 922.065 217.083 922.065 223.048C922.065 228.297 923.974 232.592 928.03 235.693C932.087 239.034 937.574 240.465 944.732 240.465C955.231 240.465 963.582 237.602 969.547 231.876C975.512 226.149 978.614 218.514 978.852 208.97V204.675Z" fill="#F2F2F2"/>
<path d="M717.975 136.913H745.175L773.091 230.444L801.008 136.913H824.629L851.352 230.444L880.223 136.913H906.469L865.907 259.076H838.229L812.46 176.043L785.737 259.076L757.821 259.315L717.975 136.913Z" fill="#F2F2F2"/>
<path d="M692.953 92.0562H718.722V259.076H692.953V92.0562Z" fill="#F2F2F2"/>
<path d="M680.339 92.5334C683.203 95.3966 684.873 99.2142 684.873 103.509C684.873 108.042 683.203 111.86 680.339 114.723C677.238 117.586 673.42 119.018 669.125 119.018C664.592 119.018 660.774 117.586 657.911 114.723C654.809 111.86 653.378 108.042 653.378 103.509C653.378 99.2142 654.809 95.3966 657.911 92.5334C660.774 89.6702 664.592 88 669.125 88C673.42 88 677.238 89.6702 680.339 92.5334ZM656.241 136.913H682.01V259.076H656.241V136.913Z" fill="#F2F2F2"/>
<path d="M466.27 92.0562H501.822L555.268 223.525L607.76 92.0562H642.596V259.076H616.111V136.197L566.005 259.076H542.861L492.755 136.197V259.076H466.27V92.0562Z" fill="#F2F2F2"/>
</svg>
