<svg width="130" height="40" viewBox="0 0 130 40" fill="none" xmlns="http://www.w3.org/2000/svg">
<path d="M25.1572 30.8479C25.3563 33.2259 24.5516 35.673 22.7401 37.5004C20.9286 39.3279 18.4888 40.1545 16.1092 39.9761C15.9101 37.5984 16.7148 35.1514 18.5263 33.3234C20.3378 31.496 22.7776 30.6698 25.1572 30.8479Z" fill="#F5F5F5"/>
<path d="M20.8473 27.5447C18.4725 30.0843 15.0417 31.6068 11.2961 31.4357C7.55095 31.2647 4.27356 29.4362 2.14014 26.6912C4.51495 24.1515 7.94569 22.6291 11.6913 22.8002C15.4365 22.9712 18.7139 24.7997 20.8473 27.5447Z" fill="#F5F5F5"/>
<path d="M0.744629 19.3707C1.24071 13.424 4.24095 7.72357 9.46696 3.96868C14.6928 0.21394 21.0522 -0.810744 26.8463 0.616215C26.3504 6.56292 23.3499 12.2633 18.1239 16.0182C12.8981 19.773 6.53863 20.7976 0.744629 19.3707Z" fill="#F5F5F5"/>
<path d="M97.0767 12.0788V15.7H99.2493V34.6316H103.112V15.7H108.182V12.0788H103.112V8.37328C103.112 7.31101 103.208 6.45812 103.402 5.81426C103.595 5.1705 103.852 4.71988 104.174 4.46232C104.528 4.17265 104.947 4.02783 105.43 4.02783C105.816 4.02783 106.218 4.10833 106.637 4.26917C107.087 4.39795 107.473 4.73591 107.795 5.28315L109.92 2.0965C109.695 1.77457 109.373 1.46881 108.954 1.17919C108.568 0.889419 108.101 0.647932 107.554 0.454834C107.007 0.261685 106.379 0.165161 105.671 0.165161C104.319 0.165161 103.16 0.454835 102.194 1.03423C101.261 1.58147 100.537 2.41833 100.022 3.54496C99.5066 4.6716 99.2493 6.12001 99.2493 7.89041V12.0788H97.0767Z" fill="#F5F5F5"/>
<path d="M36.4185 4.69531V34.6308H53.8003V30.7681H40.5226V4.69531H36.4185Z" fill="#F5F5F5"/>
<path fill-rule="evenodd" clip-rule="evenodd" d="M64.0955 35.1144C66.4777 35.1144 68.5378 34.6476 70.2759 33.714C72.0461 32.7483 73.5107 31.332 74.6694 29.4652L71.531 27.4855C70.7266 28.8375 69.7447 29.8515 68.5861 30.5273C67.4274 31.1711 66.0913 31.493 64.5784 31.493C63.0655 31.493 61.7781 31.1711 60.7159 30.5273C59.6537 29.8836 58.8487 28.9501 58.3016 27.727C57.886 26.7974 57.6277 25.7191 57.5283 24.492H75.0076V24.0575C75.0397 23.8 75.0558 23.5585 75.0558 23.3332C75.0558 20.9835 74.6373 18.9556 73.8007 17.2496C72.9636 15.5435 71.7566 14.2399 70.1794 13.3386C68.6343 12.4052 66.7671 11.9385 64.5784 11.9385C62.3896 11.9385 60.4581 12.4212 58.7844 13.3869C57.1429 14.3526 55.8555 15.7045 54.922 17.4427C54.0205 19.1809 53.5698 21.2088 53.5698 23.5263C53.5698 25.8118 54.0045 27.8234 54.8737 29.5617C55.7747 31.2999 57.0142 32.6679 58.5915 33.6658C60.2009 34.6315 62.0354 35.1144 64.0955 35.1144ZM58.3498 18.9878C58.0413 19.6412 57.8147 20.3815 57.67 21.2088H70.8336C70.7592 20.151 70.4929 19.2176 70.0342 18.4084C69.5191 17.4427 68.7951 16.6863 67.8615 16.1391C66.9284 15.5919 65.8335 15.3182 64.5784 15.3182C63.0976 15.3182 61.8264 15.6402 60.7641 16.2839C59.7341 16.8955 58.9291 17.7968 58.3498 18.9878Z" fill="#F5F5F5"/>
<path fill-rule="evenodd" clip-rule="evenodd" d="M90.7779 22.4543C90.171 22.0561 89.3982 21.7054 88.4606 21.4019C87.3983 21.0156 86.0623 20.8225 84.4529 20.8225C81.717 20.8225 79.5764 21.4824 78.0314 22.8021C76.5184 24.0896 75.7622 25.8118 75.7622 27.9684C75.7622 29.4812 76.1159 30.7688 76.8239 31.831C77.5324 32.8935 78.466 33.714 79.6247 34.2934C80.8155 34.8406 82.0873 35.1144 83.4389 35.1144C84.6619 35.1144 85.8854 34.8888 87.1084 34.4386C88.3641 33.9879 89.4102 33.2955 90.2468 32.3622C90.4468 32.1473 90.6237 31.9195 90.7779 31.679V34.6315H94.6404V18.698C94.6404 17.2496 94.2706 16.0265 93.53 15.0286C92.822 14.0308 91.808 13.2742 90.4885 12.7593C89.2007 12.2121 87.6878 11.9385 85.9497 11.9385C83.8896 11.9385 82.1194 12.2442 80.6387 12.8558C79.19 13.4674 78.0474 14.0789 77.2103 14.6905L79.0936 17.5392C79.4473 17.2817 79.9307 16.976 80.5422 16.6218C81.1537 16.2677 81.8938 15.962 82.7631 15.7045C83.6645 15.4471 84.6619 15.3182 85.7568 15.3182C86.4326 15.3182 87.0763 15.3825 87.6878 15.5114C88.2993 15.6402 88.8304 15.8493 89.2811 16.1391C89.764 16.4287 90.1343 16.8312 90.3915 17.3461C90.6493 17.829 90.7779 18.4567 90.7779 19.2292V22.4543ZM80.2523 25.6991C79.8659 26.2786 79.6729 26.9706 79.6729 27.7753C79.6729 28.6122 79.8659 29.3364 80.2523 29.9479C80.6708 30.5595 81.2341 31.0263 81.9421 31.3482C82.6827 31.6378 83.5193 31.7828 84.4529 31.7828C85.6437 31.7828 86.7059 31.5413 87.6395 31.0584C88.6053 30.5757 89.3615 29.8996 89.9087 29.0306C90.4885 28.1292 90.7779 27.0992 90.7779 25.9404V25.1051C90.1594 24.8042 89.5318 24.5676 88.8947 24.3954C87.7038 24.0414 86.4326 23.8643 85.0805 23.8643C83.8253 23.8643 82.7952 24.0252 81.9903 24.3472C81.218 24.669 80.6387 25.1197 80.2523 25.6991Z" fill="#F5F5F5"/>
<path fill-rule="evenodd" clip-rule="evenodd" d="M124.941 33.714C123.203 34.6476 121.143 35.1144 118.762 35.1144C116.701 35.1144 114.866 34.6315 113.257 33.6658C111.68 32.6679 110.441 31.2999 109.539 29.5617C108.67 27.8234 108.236 25.8118 108.236 23.5263C108.236 21.2088 108.687 19.1809 109.587 17.4427C110.521 15.7045 111.808 14.3526 113.45 13.3869C115.124 12.4212 117.055 11.9385 119.244 11.9385C121.433 11.9385 123.3 12.4052 124.845 13.3386C126.422 14.2399 127.629 15.5435 128.466 17.2496C129.303 18.9556 129.721 20.9835 129.721 23.3332C129.721 23.5585 129.705 23.8 129.673 24.0575V24.492H112.194C112.294 25.7191 112.552 26.7974 112.968 27.727C113.515 28.9501 114.319 29.8836 115.381 30.5273C116.444 31.1711 117.731 31.493 119.244 31.493C120.757 31.493 122.093 31.1711 123.252 30.5273C124.41 29.8515 125.392 28.8375 126.197 27.4855L129.335 29.4652C128.176 31.332 126.712 32.7483 124.941 33.714ZM112.336 21.2088C112.481 20.3815 112.707 19.6412 113.016 18.9878C113.595 17.7968 114.4 16.8955 115.43 16.2839C116.492 15.6402 117.764 15.3182 119.244 15.3182C120.5 15.3182 121.594 15.5919 122.528 16.1391C123.461 16.6863 124.185 17.4427 124.7 18.4084C125.158 19.2176 125.425 20.151 125.5 21.2088H112.336Z" fill="#F5F5F5"/>
</svg>
