<svg width="204" height="40" viewBox="0 0 204 40" fill="none" xmlns="http://www.w3.org/2000/svg">
<path d="M53.9575 26.8052H45.9271L44.5982 30.6474H40.3516L47.6022 10.455H52.311L59.5622 30.6474H55.2865L53.9575 26.8052ZM52.8602 23.57L49.9426 15.1348L47.0244 23.57H52.8602Z" fill="#F5F5F5"/>
<path d="M76.227 14.6436V30.6472H72.1538V28.6254C71.6338 29.3188 70.9505 29.8675 70.1029 30.2719C69.2748 30.6573 68.3695 30.8497 67.3877 30.8497C66.1356 30.8497 65.0283 30.5895 64.0656 30.0694C63.1024 29.5303 62.3417 28.7506 61.783 27.7296C61.2439 26.6896 60.9746 25.4571 60.9746 24.0322V14.6436H65.0187V23.4544C65.0187 24.7255 65.3363 25.7078 65.9718 26.4012C66.6074 27.0749 67.4741 27.4121 68.5719 27.4121C69.6888 27.4121 70.5651 27.0749 71.2007 26.4012C71.8363 25.7078 72.1538 24.7255 72.1538 23.4544V14.6436H76.227Z" fill="#F5F5F5"/>
<path d="M83.7695 17.9661V25.7083C83.7695 26.2474 83.8946 26.6423 84.1453 26.8925C84.4147 27.1236 84.8578 27.2392 85.4738 27.2392H87.3519V30.6477H84.8096C81.401 30.6477 79.6963 28.9917 79.6963 25.6791V17.9661H77.79V14.644H79.6963V10.6864H83.7695V14.644H87.3519V17.9661H83.7695Z" fill="#F5F5F5"/>
<path d="M96.2106 30.9076C94.6701 30.9076 93.2834 30.5704 92.051 29.8967C90.8185 29.2033 89.8458 28.2306 89.1333 26.9785C88.4399 25.727 88.0933 24.2825 88.0933 22.6455C88.0933 21.0086 88.4495 19.5641 89.1619 18.3124C89.894 17.0606 90.8858 16.0977 92.1374 15.4236C93.3894 14.7303 94.7857 14.3837 96.3262 14.3837C97.8671 14.3837 99.2634 14.7303 100.515 15.4236C101.767 16.0977 102.749 17.0606 103.462 18.3124C104.193 19.5641 104.559 21.0086 104.559 22.6455C104.559 24.2825 104.184 25.727 103.433 26.9785C102.701 28.2306 101.699 29.2033 100.429 29.8967C99.1765 30.5704 97.7707 30.9076 96.2106 30.9076ZM96.2106 27.383C96.9427 27.383 97.6265 27.2097 98.2616 26.863C98.9167 26.4972 99.4368 25.9581 99.8216 25.2456C100.207 24.5327 100.399 23.6665 100.399 22.6455C100.399 21.1241 99.995 19.959 99.186 19.1501C98.3967 18.322 97.424 17.908 96.2684 17.908C95.1128 17.908 94.1406 18.322 93.3507 19.1501C92.5805 19.959 92.1951 21.1241 92.1951 22.6455C92.1951 24.1669 92.571 25.3416 93.3221 26.1701C94.0923 26.9785 95.055 27.383 96.2106 27.383Z" fill="#F5F5F5"/>
<path d="M126.246 14.4121C128.211 14.4121 129.79 15.0188 130.984 16.232C132.197 17.4261 132.804 19.1014 132.804 21.2584V30.6469H128.76V21.8075C128.76 20.5554 128.442 19.6023 127.806 18.9476C127.171 18.2734 126.304 17.9364 125.206 17.9364C124.109 17.9364 123.232 18.2734 122.578 18.9476C121.942 19.6023 121.625 20.5554 121.625 21.8075V30.6469H117.58V21.8075C117.58 20.5554 117.262 19.6023 116.627 18.9476C115.991 18.2734 115.125 17.9364 114.027 17.9364C112.91 17.9364 112.024 18.2734 111.369 18.9476C110.734 19.6023 110.416 20.5554 110.416 21.8075V30.6469H106.372V14.6432H110.416V16.5787C110.936 15.9046 111.6 15.375 112.409 14.9899C113.237 14.6047 114.142 14.4121 115.125 14.4121C116.377 14.4121 117.493 14.6817 118.476 15.2209C119.458 15.741 120.219 16.492 120.758 17.4742C121.278 16.5498 122.029 15.8083 123.011 15.2498C124.013 14.6914 125.091 14.4121 126.246 14.4121Z" fill="#F5F5F5"/>
<path d="M134.445 22.5879C134.445 20.97 134.763 19.5356 135.398 18.2836C136.053 17.0318 136.929 16.0689 138.027 15.3948C139.144 14.7208 140.386 14.3838 141.754 14.3838C142.948 14.3838 143.988 14.6245 144.873 15.106C145.779 15.5874 146.501 16.1941 147.04 16.9259V14.6437H151.113V30.6474H147.04V28.3076C146.52 29.0587 145.798 29.6848 144.873 30.1852C143.968 30.667 142.919 30.9077 141.725 30.9077C140.377 30.9077 139.144 30.561 138.027 29.8677C136.929 29.1743 136.053 28.2016 135.398 26.95C134.763 25.6789 134.445 24.2248 134.445 22.5879ZM147.04 22.6456C147.04 21.6634 146.847 20.8258 146.463 20.1325C146.077 19.42 145.557 18.8809 144.903 18.5147C144.248 18.1296 143.544 17.937 142.794 17.937C142.043 17.937 141.349 18.12 140.714 18.4858C140.078 18.8518 139.558 19.3909 139.154 20.1033C138.769 20.7967 138.576 21.6252 138.576 22.5879C138.576 23.551 138.769 24.3981 139.154 25.1302C139.558 25.8426 140.078 26.3913 140.714 26.7767C141.368 27.162 142.062 27.3545 142.794 27.3545C143.544 27.3545 144.248 27.1716 144.903 26.8053C145.557 26.4204 146.077 25.8813 146.463 25.188C146.847 24.475 147.04 23.6279 147.04 22.6456Z" fill="#F5F5F5"/>
<path d="M158.617 17.9663V25.7084C158.617 26.2475 158.742 26.6424 158.993 26.8927C159.262 27.1238 159.705 27.2393 160.321 27.2393H162.199V30.6479H159.657C156.248 30.6479 154.544 28.9918 154.544 25.6793V17.9663H152.637V14.6442H154.544V10.6865H158.617V14.6442H162.199V17.9663H158.617Z" fill="#F5F5F5"/>
<path d="M166.004 12.7376C165.292 12.7376 164.695 12.5161 164.213 12.0732C163.751 11.611 163.52 11.0429 163.52 10.3688C163.52 9.69477 163.751 9.13626 164.213 8.69331C164.695 8.23112 165.292 8 166.004 8C166.717 8 167.304 8.23112 167.766 8.69331C168.248 9.13626 168.489 9.69477 168.489 10.3688C168.489 11.0429 168.248 11.611 167.766 12.0732C167.304 12.5161 166.717 12.7376 166.004 12.7376ZM167.997 14.6442V30.6479H163.953V14.6442H167.997Z" fill="#F5F5F5"/>
<path d="M177.945 30.9077C176.405 30.9077 175.018 30.5706 173.785 29.8968C172.553 29.2034 171.58 28.2307 170.868 26.9787C170.174 25.7271 169.828 24.2826 169.828 22.6456C169.828 21.0087 170.184 19.5642 170.896 18.3125C171.628 17.0607 172.62 16.0978 173.872 15.4237C175.124 14.7304 176.52 14.3838 178.061 14.3838C179.602 14.3838 180.998 14.7304 182.249 15.4237C183.501 16.0978 184.484 17.0607 185.196 18.3125C185.928 19.5642 186.294 21.0087 186.294 22.6456C186.294 24.2826 185.918 25.7271 185.167 26.9787C184.435 28.2307 183.434 29.2034 182.163 29.8968C180.911 30.5706 179.505 30.9077 177.945 30.9077ZM177.945 27.3831C178.677 27.3831 179.361 27.2098 179.996 26.8631C180.651 26.4973 181.171 25.9582 181.556 25.2458C181.941 24.5328 182.134 23.6666 182.134 22.6456C182.134 21.1243 181.729 19.9591 180.92 19.1502C180.131 18.3221 179.158 17.9081 178.003 17.9081C176.848 17.9081 175.875 18.3221 175.085 19.1502C174.315 19.9591 173.93 21.1243 173.93 22.6456C173.93 24.167 174.305 25.3417 175.056 26.1702C175.827 26.9787 176.79 27.3831 177.945 27.3831Z" fill="#F5F5F5"/>
<path d="M196.972 14.4121C198.879 14.4121 200.42 15.0188 201.594 16.232C202.769 17.4261 203.356 19.1014 203.356 21.2584V30.6469H199.312V21.8075C199.312 20.5364 198.994 19.5636 198.359 18.8899C197.723 18.1964 196.856 17.8497 195.759 17.8497C194.642 17.8497 193.756 18.1964 193.101 18.8899C192.466 19.5636 192.148 20.5364 192.148 21.8075V30.6469H188.104V14.6432H192.148V16.6364C192.687 15.9431 193.371 15.4039 194.199 15.0188C195.046 14.6143 195.971 14.4121 196.972 14.4121Z" fill="#F5F5F5"/>
<path fill-rule="evenodd" clip-rule="evenodd" d="M16.1907 11.5484C11.6809 11.5484 8.02499 15.2043 8.02499 19.714V20.2855H0.356445V19.714C0.356445 10.9691 7.44566 3.87988 16.1907 3.87988V11.5484Z" fill="#F5F5F5"/>
<path fill-rule="evenodd" clip-rule="evenodd" d="M22.6421 20.286V19.7148H30.311V20.286C30.311 29.0313 23.2215 36.1204 14.4766 36.1204V28.4519C18.9864 28.4519 22.6421 24.7958 22.6421 20.286Z" fill="#F5F5F5"/>
<path fill-rule="evenodd" clip-rule="evenodd" d="M15.9049 0V15.1428L29.0479 7.71426L15.9049 0ZM14.7629 40L14.7629 24.8573L1.62012 32.2856L14.7629 40Z" fill="#F5F5F5"/>
</svg>
