<svg width="453" height="99" viewBox="0 0 453 99" fill="none" xmlns="http://www.w3.org/2000/svg">
<path d="M25.9157 96.2565C25.4673 97.5553 26.4322 98.9091 27.8063 98.9091H45.9566C46.8227 98.9091 47.5905 98.3515 47.8584 97.5278L54.2969 77.7364C54.5649 76.9127 55.3326 76.3551 56.1988 76.3551H89.0049C89.8715 76.3551 90.6396 76.9132 90.9072 77.7375L97.3324 97.5267C97.6 98.351 98.3681 98.9091 99.2347 98.9091H117.385C118.759 98.9091 119.724 97.556 119.276 96.2573L86.5585 1.34819C86.2804 0.541435 85.521 0 84.6677 0H60.5703C59.7173 0 58.9581 0.541038 58.6798 1.34737L25.9157 96.2565Z" fill="#C615EE"/>
<path d="M430.693 79.8566C426.258 79.8566 422.422 78.9143 419.186 77.0298C415.969 75.1263 413.485 72.4804 411.734 69.0921C409.983 65.6848 409.107 61.7349 409.107 57.2426C409.107 52.7122 409.983 48.7528 411.734 45.3645C413.485 41.9572 415.969 39.3112 419.186 37.4267C422.422 35.5232 426.258 34.5714 430.693 34.5714C435.128 34.5714 438.954 35.5232 442.171 37.4267C445.407 39.3112 447.901 41.9572 449.652 45.3645C451.404 48.7528 452.279 52.7122 452.279 57.2426C452.279 61.7349 451.404 65.6848 449.652 69.0921C447.901 72.4804 445.407 75.1263 442.171 77.0298C438.954 78.9143 435.128 79.8566 430.693 79.8566ZM430.75 70.4341C432.768 70.4341 434.453 69.863 435.804 68.7209C437.156 67.5597 438.174 65.9798 438.859 63.9811C439.564 61.9824 439.916 59.7076 439.916 57.1569C439.916 54.6062 439.564 52.3314 438.859 50.3327C438.174 48.334 437.156 46.7541 435.804 45.5929C434.453 44.4318 432.768 43.8512 430.75 43.8512C428.713 43.8512 427 44.4318 425.611 45.5929C424.24 46.7541 423.203 48.334 422.498 50.3327C421.813 52.3314 421.47 54.6062 421.47 57.1569C421.47 59.7076 421.813 61.9824 422.498 63.9811C423.203 65.9798 424.24 67.5597 425.611 68.7209C427 69.863 428.713 70.4341 430.75 70.4341Z" fill="white"/>
<path d="M407.445 35.1425V44.2795H381.034V35.1425H407.445ZM387.03 24.635H399.193V65.523C399.193 66.646 399.365 67.5217 399.707 68.1498C400.05 68.759 400.526 69.1873 401.135 69.4347C401.763 69.6822 402.486 69.8059 403.305 69.8059C403.876 69.8059 404.447 69.7583 405.018 69.6631C405.589 69.5489 406.027 69.4633 406.332 69.4062L408.245 78.4575C407.636 78.6478 406.779 78.8667 405.675 79.1142C404.571 79.3807 403.229 79.5425 401.649 79.5996C398.717 79.7138 396.148 79.3236 393.94 78.4289C391.751 77.5343 390.047 76.1447 388.829 74.2602C387.61 72.3757 387.011 69.9963 387.03 67.1219V24.635Z" fill="white"/>
<path d="M378.394 20.5233V79H366.23V20.5233H378.394Z" fill="white"/>
<path d="M320.411 79H307.163L327.35 20.5233H343.282L363.441 79H350.192L335.544 33.8862H335.087L320.411 79ZM319.583 56.0148H350.877V65.6657H319.583V56.0148Z" fill="white"/>
<path d="M270.039 79.8566C265.604 79.8566 261.768 78.9143 258.532 77.0298C255.315 75.1263 252.831 72.4804 251.08 69.0921C249.329 65.6848 248.453 61.7349 248.453 57.2426C248.453 52.7122 249.329 48.7528 251.08 45.3645C252.831 41.9572 255.315 39.3112 258.532 37.4267C261.768 35.5232 265.604 34.5714 270.039 34.5714C274.475 34.5714 278.301 35.5232 281.518 37.4267C284.754 39.3112 287.247 41.9572 288.999 45.3645C290.75 48.7528 291.625 52.7122 291.625 57.2426C291.625 61.7349 290.75 65.6848 288.999 69.0921C287.247 72.4804 284.754 75.1263 281.518 77.0298C278.301 78.9143 274.475 79.8566 270.039 79.8566ZM270.096 70.4341C272.114 70.4341 273.799 69.863 275.15 68.7209C276.502 67.5597 277.52 65.9798 278.205 63.9811C278.91 61.9824 279.262 59.7076 279.262 57.1569C279.262 54.6062 278.91 52.3314 278.205 50.3327C277.52 48.334 276.502 46.7541 275.15 45.5929C273.799 44.4318 272.114 43.8512 270.096 43.8512C268.06 43.8512 266.346 44.4318 264.957 45.5929C263.586 46.7541 262.549 48.334 261.845 50.3327C261.159 52.3314 260.817 54.6062 260.817 57.1569C260.817 59.7076 261.159 61.9824 261.845 63.9811C262.549 65.9798 263.586 67.5597 264.957 68.7209C266.346 69.863 268.06 70.4341 270.096 70.4341Z" fill="white"/>
<path d="M244.5 20.5233V79H232.336V20.5233H244.5Z" fill="white"/>
<path d="M202.222 79.828C199.423 79.828 196.93 79.3426 194.741 78.3718C192.552 77.382 190.819 75.9258 189.544 74.0032C188.288 72.0616 187.659 69.6441 187.659 66.7507C187.659 64.3142 188.107 62.2679 189.001 60.6118C189.896 58.9558 191.114 57.6233 192.656 56.6144C194.198 55.6055 195.949 54.8441 197.91 54.3302C199.89 53.8162 201.965 53.4545 204.135 53.2451C206.685 52.9786 208.741 52.7312 210.302 52.5028C211.863 52.2553 212.996 51.8936 213.7 51.4177C214.404 50.9419 214.756 50.2376 214.756 49.3048V49.1335C214.756 47.3251 214.185 45.926 213.043 44.9362C211.92 43.9464 210.321 43.4514 208.246 43.4514C206.057 43.4514 204.315 43.9368 203.021 44.9076C201.727 45.8594 200.87 47.0586 200.451 48.5053L189.201 47.5916C189.772 44.9267 190.895 42.6234 192.571 40.6818C194.246 38.7212 196.406 37.2174 199.052 36.1704C201.717 35.1044 204.801 34.5714 208.303 34.5714C210.74 34.5714 213.072 34.857 215.299 35.428C217.545 35.9991 219.534 36.8842 221.266 38.0835C223.018 39.2827 224.398 40.8246 225.407 42.7091C226.415 44.5745 226.92 46.8112 226.92 49.419V79H215.384V72.9182H215.042C214.338 74.2887 213.395 75.4975 212.215 76.5444C211.035 77.5723 209.617 78.3813 207.961 78.9714C206.305 79.5425 204.392 79.828 202.222 79.828ZM205.705 71.4334C207.494 71.4334 209.074 71.0813 210.445 70.377C211.815 69.6536 212.891 68.6828 213.671 67.4646C214.452 66.2463 214.842 64.8662 214.842 63.3244V58.6702C214.461 58.9177 213.938 59.1461 213.272 59.3555C212.624 59.5458 211.891 59.7267 211.073 59.898C210.254 60.0503 209.436 60.1931 208.617 60.3263C207.799 60.4405 207.057 60.5452 206.39 60.6404C204.963 60.8498 203.716 61.1829 202.65 61.6397C201.584 62.0966 200.756 62.7152 200.166 63.4957C199.576 64.2571 199.281 65.2089 199.281 66.351C199.281 68.0071 199.88 69.2729 201.079 70.1485C202.298 71.0051 203.84 71.4334 205.705 71.4334Z" fill="white"/>
<path d="M143.082 79V20.5233H166.153C170.589 20.5233 174.367 21.3704 177.489 23.0646C180.611 24.7397 182.99 27.0715 184.627 30.0601C186.283 33.0296 187.111 36.4559 187.111 40.3392C187.111 44.2224 186.274 47.6487 184.599 50.6183C182.923 53.5878 180.496 55.9006 177.318 57.5567C174.158 59.2127 170.332 60.0408 165.839 60.0408H151.134V50.1329H163.841C166.22 50.1329 168.181 49.7236 169.722 48.9051C171.283 48.0675 172.445 46.9159 173.206 45.4502C173.986 43.9654 174.377 42.2617 174.377 40.3392C174.377 38.3976 173.986 36.7034 173.206 35.2567C172.445 33.791 171.283 32.6584 169.722 31.8589C168.162 31.0404 166.182 30.6311 163.783 30.6311H155.446V79H143.082Z" fill="white"/>
<path d="M2.59659 0C1.49202 0 0.596588 0.89543 0.596588 2V96.9091C0.596588 98.0137 1.49202 98.9091 2.59659 98.9091H19.5085C20.6131 98.9091 21.5085 98.0137 21.5085 96.9091V68.8409C21.5085 67.7364 22.4039 66.8409 23.5085 66.8409H39.0881C46.6866 66.8409 53.1581 65.4403 58.5028 62.6392C63.8797 59.8381 67.9849 55.9261 70.8182 50.9034C73.6515 45.8807 75.0682 40.0852 75.0682 33.5171C75.0682 26.9489 73.6676 21.1534 70.8665 16.1307C68.0975 11.0758 64.0729 7.13163 58.7926 4.2983C53.5123 1.43277 47.1212 0 39.6193 0H2.59659Z" fill="#7231FF"/>
<path fill-rule="evenodd" clip-rule="evenodd" d="M57.7628 3.90909L36 66.9505H39.0177C42.8281 66.9505 46.3552 66.5983 49.5989 65.8938C52.8235 65.1936 55.768 64.1452 58.4324 62.7488C58.7212 62.5983 59.0064 62.4447 59.2878 62.2878C64.2466 59.5242 68.0666 55.7659 70.7478 51.013C73.5811 45.9903 74.9978 40.1948 74.9978 33.6266C74.9978 31.6409 74.8698 29.7259 74.6138 27.8814C74.0229 23.6249 72.7504 19.7445 70.7961 16.2403C70.0207 14.8248 69.1469 13.4964 68.1746 12.2551C65.6747 9.06354 62.5239 6.44781 58.7222 4.40788C58.4064 4.23649 58.0866 4.07023 57.7628 3.90909Z" fill="#DF7CF6"/>
</svg>
